<svg width="146" height="167" viewBox="0 0 146 167" fill="none" xmlns="http://www.w3.org/2000/svg">
<path fill-rule="evenodd" clip-rule="evenodd" d="M52.0247 40.6874C52.6815 39.2617 53.4508 38.1541 53.9591 37.5701C53.9691 38.9475 53.7568 40.183 53.4281 41.2568C54.4395 41.7447 55.4906 42.4279 56.4948 43.3705C55.7209 43.3471 54.3856 43.1597 52.893 42.6736C52.205 44.1908 51.3353 45.2383 50.7651 45.7261C50.8037 44.4492 51.0724 43.2255 51.4498 42.1217C50.3832 41.6491 49.3024 41.0152 48.3389 40.1765C49.0841 40.0891 50.4438 40.1621 52.0247 40.6874Z" fill="url(#paint0_linear)"/>
<path fill-rule="evenodd" clip-rule="evenodd" d="M46.8334 26.4047C47.2705 25.4557 47.7825 24.7185 48.1209 24.3298C48.1276 25.2466 47.9863 26.069 47.7675 26.7837C48.4407 27.1085 49.1403 27.5632 49.8087 28.1907C49.2936 28.1751 48.4048 28.0503 47.4113 27.7268C46.9533 28.7367 46.3744 29.434 45.9949 29.7586C46.0206 28.9087 46.1994 28.0942 46.4506 27.3594C45.7407 27.0448 45.0213 26.6229 44.3799 26.0646C44.876 26.0065 45.781 26.0551 46.8334 26.4047Z" fill="url(#paint1_linear)"/>
<path fill-rule="evenodd" clip-rule="evenodd" d="M32.7845 12.2069C33.4412 10.7815 34.2104 9.67413 34.7187 9.09024C34.7286 10.4674 34.5164 11.7027 34.1878 12.7764C35.1989 13.2643 36.2496 13.9473 37.2536 14.8897C36.4799 14.8663 35.145 14.679 33.6528 14.1931C32.9647 15.7106 32.0949 16.7584 31.5246 17.2461C31.5632 15.9691 31.832 14.7452 32.2095 13.6413C31.1426 13.1686 30.0615 12.5347 29.0977 11.6957C29.8431 11.6083 31.2031 11.6813 32.7845 12.2069Z" fill="url(#paint2_linear)"/>
<path fill-rule="evenodd" clip-rule="evenodd" d="M30.5563 44.1723C31.5226 42.0747 32.6543 40.4452 33.4022 39.5861C33.4169 41.6125 33.1046 43.4302 32.621 45.01C34.109 45.7278 35.6553 46.7329 37.1328 48.1198C35.9943 48.0854 34.0297 47.8096 31.8338 47.0944C30.8215 49.3266 29.542 50.8678 28.703 51.5854C28.7599 49.7068 29.1551 47.9065 29.7104 46.2824C28.1412 45.5871 26.5511 44.6546 25.1336 43.4206C26.23 43.2921 28.2303 43.3995 30.5563 44.1723Z" fill="url(#paint3_linear)"/>
<circle cx="36.3693" cy="29.8161" r="0.846528" transform="rotate(21.3865 36.3693 29.8161)" fill="#2F235A"/>
<circle cx="57.3296" cy="19.1722" r="0.846528" transform="rotate(21.3865 57.3296 19.1722)" fill="#FE9076"/>
<circle cx="17.0945" cy="23.7964" r="0.846528" transform="rotate(21.3865 17.0945 23.7964)" fill="#FFA400"/>
<circle cx="35.2724" cy="57.8818" r="0.846528" transform="rotate(21.3865 35.2724 57.8818)" fill="#23BB86"/>
<path d="M56.6865 15.1262C55.863 11.9807 52.8903 4.78683 47.5884 1.17529" stroke="#FE9076" stroke-width="0.736823" stroke-linecap="round"/>
<path d="M14.5961 20.3814C12.5468 17.8569 6.86814 12.5333 0.54785 11.4343" stroke="#FFA400" stroke-width="0.736823" stroke-linecap="round"/>
<path d="M31.6704 59.112C29.8543 59.7743 25.2825 61.8848 21.5241 65.0281" stroke="#23BB86" stroke-width="0.736823" stroke-linecap="round"/>
<path fill-rule="evenodd" clip-rule="evenodd" d="M93.9725 40.6876C93.3158 39.2619 92.5465 38.1543 92.0381 37.5703C92.0281 38.9477 92.2404 40.1832 92.5691 41.257C91.5578 41.7449 90.5067 42.4281 89.5024 43.3707C90.2763 43.3473 91.6117 43.1599 93.1042 42.6738C93.7923 44.191 94.662 45.2385 95.2322 45.7263C95.1935 44.4494 94.9249 43.2257 94.5475 42.1219C95.6141 41.6492 96.6948 41.0154 97.6584 40.1767C96.9131 40.0893 95.5535 40.1623 93.9725 40.6876Z" fill="url(#paint4_linear)"/>
<path fill-rule="evenodd" clip-rule="evenodd" d="M99.1645 26.4039C98.7273 25.4549 98.2153 24.7177 97.8769 24.329C97.8702 25.2458 98.0115 26.0682 98.2303 26.7829C97.5571 27.1077 96.8575 27.5624 96.1891 28.1899C96.7042 28.1743 97.593 28.0496 98.5865 27.726C99.0445 28.7359 99.6234 29.4332 100.003 29.7578C99.9772 28.9079 99.7984 28.0934 99.5472 27.3586C100.257 27.044 100.977 26.6222 101.618 26.0638C101.122 26.0057 100.217 26.0543 99.1645 26.4039Z" fill="url(#paint5_linear)"/>
<path fill-rule="evenodd" clip-rule="evenodd" d="M113.22 12.207C112.563 10.7814 111.794 9.67397 111.286 9.09005C111.276 10.4673 111.488 11.7027 111.817 12.7764C110.805 13.2643 109.755 13.9474 108.75 14.89C109.524 14.8666 110.859 14.6792 112.352 14.1932C113.04 15.7105 113.91 16.7582 114.48 17.246C114.441 15.969 114.172 14.7452 113.795 13.6413C114.862 13.1687 115.943 12.5348 116.906 11.6959C116.161 11.6086 114.801 11.6816 113.22 12.207Z" fill="url(#paint6_linear)"/>
<path fill-rule="evenodd" clip-rule="evenodd" d="M115.446 44.1708C114.48 42.0736 113.348 40.4445 112.6 39.5855C112.585 41.6114 112.898 43.4287 113.381 45.0082C111.892 45.7261 110.345 46.7315 108.867 48.1191C110.006 48.0846 111.971 47.8087 114.168 47.093C115.181 49.3256 116.46 50.8671 117.299 51.5847C117.242 49.7058 116.847 47.905 116.292 46.2807C117.86 45.5855 119.449 44.6533 120.866 43.4199C119.77 43.2914 117.771 43.3987 115.446 44.1708Z" fill="url(#paint7_linear)"/>
<circle r="0.846528" transform="matrix(-0.931142 0.364658 0.364658 0.931142 109.631 29.8152)" fill="#2F235A"/>
<circle r="0.846528" transform="matrix(-0.931142 0.364658 0.364658 0.931142 88.6679 19.1726)" fill="#FE9076"/>
<circle r="0.846528" transform="matrix(-0.931142 0.364658 0.364658 0.931142 128.908 23.7957)" fill="#FFA400"/>
<circle r="0.846528" transform="matrix(-0.931142 0.364658 0.364658 0.931142 110.728 57.8816)" fill="#23BB86"/>
<path d="M89.3113 15.1271C90.1349 11.9816 93.1075 4.78776 98.4095 1.17623" stroke="#FE9076" stroke-width="0.736823" stroke-linecap="round"/>
<path d="M131.407 20.3813C133.456 17.8569 139.135 12.5333 145.455 11.4342" stroke="#FFA400" stroke-width="0.736823" stroke-linecap="round"/>
<path d="M114.333 59.1128C116.149 59.7751 120.721 61.8856 124.479 65.0289" stroke="#23BB86" stroke-width="0.736823" stroke-linecap="round"/>
<rect x="26.8154" y="104.439" width="89.8505" height="62.1103" fill="url(#paint8_linear)"/>
<mask id="mask0" style="mask-type:alpha" maskUnits="userSpaceOnUse" x="26" y="104" width="91" height="63">
<rect x="26.8154" y="104.439" width="89.8505" height="62.1103" fill="#C4C4C4"/>
</mask>
<g mask="url(#mask0)">
<path d="M31.0668 102.858L92.2488 102.858L78.4202 126.869L17.2382 126.869L31.0668 102.858Z" fill="black" fill-opacity="0.07"/>
<rect x="87.9173" y="104.439" width="89.8505" height="62.1103" fill="url(#paint9_linear)"/>
</g>
<path d="M26.736 104.439L87.918 104.439L76.0995 124.162L14.9175 124.162L26.736 104.439Z" fill="url(#paint10_linear)"/>
<mask id="mask1" style="mask-type:alpha" maskUnits="userSpaceOnUse" x="87" y="104" width="30" height="63">
<rect x="87.9179" y="104.439" width="28.7479" height="62.1103" fill="#C4C4C4"/>
</mask>
<g mask="url(#mask1)">
<path d="M113.168 104.336L84.3751 104.336L97.9043 127.042L126.697 127.042L113.168 104.336Z" fill="black" fill-opacity="0.07"/>
</g>
<path d="M116.711 104.439L87.9179 104.439L99.7365 124.162L128.529 124.162L116.711 104.439Z" fill="url(#paint11_linear)"/>
<circle cx="56.7434" cy="88.6195" r="8.49082" fill="url(#paint12_linear)"/>
<circle cx="89.3727" cy="67.6864" r="8.20473" fill="url(#paint13_linear)"/>
<circle cx="58.6179" cy="57.1029" r="6.61631" fill="url(#paint14_linear)"/>
<circle cx="76.9911" cy="41.9936" r="5.98519" fill="url(#paint15_linear)"/>
<circle cx="65.2343" cy="25.3705" r="4.6365" fill="url(#paint16_linear)"/>
<circle cx="73.201" cy="66.0365" r="1.65" fill="#FFA800" fill-opacity="0.23"/>
<circle cx="100.642" cy="52.1366" r="1.65" fill="#FFA800" fill-opacity="0.23"/>
<circle cx="102.292" cy="25.3705" r="1.65" fill="#FFA800" fill-opacity="0.23"/>
<circle cx="46.6025" cy="28.357" r="1.65" fill="#FFA800" fill-opacity="0.23"/>
<circle cx="80.2009" cy="92.284" r="1.65" fill="#FFA800" fill-opacity="0.23"/>
<circle cx="38.7964" cy="62.7364" r="1.65" fill="#FFA800" fill-opacity="0.23"/>
<path d="M116.878 104.733H26.7443L12.902 19.3853H133.5L116.878 104.733Z" fill="url(#paint17_linear)"/>
<defs>
<linearGradient id="paint0_linear" x1="53.7092" y1="38.4735" x2="50.7102" y2="46.1314" gradientUnits="userSpaceOnUse">
<stop stop-color="#FFE89E"/>
<stop offset="1" stop-color="#FFBF1A"/>
</linearGradient>
<linearGradient id="paint1_linear" x1="47.9546" y1="24.9311" x2="45.9583" y2="30.0284" gradientUnits="userSpaceOnUse">
<stop stop-color="#FFE89E"/>
<stop offset="1" stop-color="#FFBF1A"/>
</linearGradient>
<linearGradient id="paint2_linear" x1="34.4678" y1="9.99323" x2="31.4688" y2="17.6511" gradientUnits="userSpaceOnUse">
<stop stop-color="#FFE89E"/>
<stop offset="1" stop-color="#FFBF1A"/>
</linearGradient>
<linearGradient id="paint3_linear" x1="33.0346" y1="40.9152" x2="28.6223" y2="52.1817" gradientUnits="userSpaceOnUse">
<stop stop-color="#FFE89E"/>
<stop offset="1" stop-color="#FFBF1A"/>
</linearGradient>
<linearGradient id="paint4_linear" x1="92.288" y1="38.4737" x2="95.287" y2="46.1316" gradientUnits="userSpaceOnUse">
<stop stop-color="#FFE89E"/>
<stop offset="1" stop-color="#FFBF1A"/>
</linearGradient>
<linearGradient id="paint5_linear" x1="98.0432" y1="24.9303" x2="100.039" y2="30.0276" gradientUnits="userSpaceOnUse">
<stop stop-color="#FFE89E"/>
<stop offset="1" stop-color="#FFBF1A"/>
</linearGradient>
<linearGradient id="paint6_linear" x1="111.536" y1="9.99323" x2="114.535" y2="17.6511" gradientUnits="userSpaceOnUse">
<stop stop-color="#FFE89E"/>
<stop offset="1" stop-color="#FFBF1A"/>
</linearGradient>
<linearGradient id="paint7_linear" x1="112.966" y1="40.9154" x2="117.378" y2="52.1819" gradientUnits="userSpaceOnUse">
<stop stop-color="#FFE89E"/>
<stop offset="1" stop-color="#FFBF1A"/>
</linearGradient>
<linearGradient id="paint8_linear" x1="56.8296" y1="92.9402" x2="21.0194" y2="191.572" gradientUnits="userSpaceOnUse">
<stop stop-color="#FFD481"/>
<stop offset="1" stop-color="#FA620C"/>
</linearGradient>
<linearGradient id="paint9_linear" x1="42.1451" y1="100.5" x2="150.825" y2="216.639" gradientUnits="userSpaceOnUse">
<stop stop-color="#FFD481"/>
<stop offset="0.83311" stop-color="#FA620C"/>
</linearGradient>
<linearGradient id="paint10_linear" x1="27.9951" y1="97.3904" x2="25.0874" y2="139.413" gradientUnits="userSpaceOnUse">
<stop stop-color="#FFD481"/>
<stop offset="1" stop-color="#FA620C"/>
</linearGradient>
<linearGradient id="paint11_linear" x1="121.254" y1="97.3904" x2="126.426" y2="138.971" gradientUnits="userSpaceOnUse">
<stop stop-color="#FFD481"/>
<stop offset="1" stop-color="#FA620C"/>
</linearGradient>
<linearGradient id="paint12_linear" x1="57.3863" y1="77.3264" x2="55.7712" y2="100.245" gradientUnits="userSpaceOnUse">
<stop stop-color="#FF9F81"/>
<stop offset="1" stop-color="#F53838"/>
</linearGradient>
<linearGradient id="paint13_linear" x1="89.994" y1="56.7739" x2="88.4333" y2="78.9204" gradientUnits="userSpaceOnUse">
<stop stop-color="#FF9F81"/>
<stop offset="1" stop-color="#F53838"/>
</linearGradient>
<linearGradient id="paint14_linear" x1="59.1189" y1="48.303" x2="57.8604" y2="66.162" gradientUnits="userSpaceOnUse">
<stop stop-color="#FF9F81"/>
<stop offset="1" stop-color="#F53838"/>
</linearGradient>
<linearGradient id="paint15_linear" x1="77.4443" y1="34.0331" x2="76.3058" y2="50.1886" gradientUnits="userSpaceOnUse">
<stop stop-color="#FF9F81"/>
<stop offset="1" stop-color="#F53838"/>
</linearGradient>
<linearGradient id="paint16_linear" x1="65.5854" y1="19.2038" x2="64.7034" y2="31.7188" gradientUnits="userSpaceOnUse">
<stop stop-color="#FF9F81"/>
<stop offset="1" stop-color="#F53838"/>
</linearGradient>
<linearGradient id="paint17_linear" x1="72.21" y1="19.3853" x2="72.21" y2="200.709" gradientUnits="userSpaceOnUse">
<stop stop-color="white" stop-opacity="0"/>
<stop offset="1" stop-color="#FE9277"/>
</linearGradient>
</defs>
</svg>
