<svg width="369" height="362" viewBox="0 0 369 362" fill="none" xmlns="http://www.w3.org/2000/svg">
<path d="M30.9595 217.635L37.7478 213.242C37.7478 213.242 41.0439 195.742 38.5954 180.297C35.1581 158.506 20.3415 151.015 14.9579 153.164C9.57433 155.314 8.30299 161.793 18.0264 174.343C23.7631 181.764 31.14 197.444 30.9595 217.635Z" fill="#FD836D"/>
<g opacity="0.3">
<path opacity="0.3" d="M30.9595 217.635L37.7478 213.242C37.7478 213.242 41.0439 195.742 38.5954 180.297C35.1581 158.506 20.3415 151.015 14.9579 153.164C9.57433 155.314 8.30299 161.793 18.0264 174.343C23.7631 181.764 31.14 197.444 30.9595 217.635Z" fill="white"/>
</g>
<path d="M33.4316 208.998H33.3609C33.2338 208.979 33.1192 208.911 33.0415 208.808C32.9639 208.706 32.9292 208.577 32.945 208.449C35.7624 188.055 27.5693 165.762 18.356 156.765C18.2633 156.674 18.2105 156.551 18.209 156.421C18.2075 156.292 18.2576 156.167 18.3481 156.074C18.4387 155.982 18.5623 155.929 18.6918 155.928C18.8213 155.926 18.9461 155.976 19.0387 156.067C28.4168 165.221 36.7669 187.882 33.9103 208.575C33.8951 208.691 33.8383 208.798 33.7503 208.876C33.6623 208.954 33.5491 208.997 33.4316 208.998Z" fill="white"/>
<path d="M13.8671 228.671C12.8468 229.252 9.94316 227.016 9.15839 226.475C7.78007 225.536 6.66662 224.258 5.9251 222.765C5.09767 221.061 4.8233 219.141 5.14032 217.274C5.30357 216.289 5.53432 215.317 5.83093 214.364C6.1056 213.422 6.37242 212.481 6.61571 211.54C6.9458 210.629 7.08471 209.659 7.02379 208.692C6.78051 206.763 5.06185 205.414 3.50798 204.245C1.78147 202.958 -0.00782206 201.256 2.57217e-05 198.934C0.123738 197.131 0.844354 195.42 2.0483 194.071C3.16268 192.659 4.48111 191.42 5.48563 189.929C6.27644 188.895 6.68911 187.622 6.65495 186.321C6.54683 185.526 6.27996 184.76 5.87017 184.07C5.08539 182.556 3.971 181.168 3.40596 179.544C2.84092 177.92 2.9194 175.896 4.19074 174.735C5.22665 173.778 6.78051 173.645 8.18526 173.739C9.50568 173.901 10.7751 174.348 11.9051 175.049C15.5936 177.096 17.7046 181.466 21.6207 183.042C23.1641 183.528 24.7368 183.916 26.3293 184.203C27.8989 184.619 29.5077 185.427 30.2532 186.878C31.6894 189.749 29.0211 193.287 30.0335 196.33C30.9281 199.028 33.5493 200.056 35.0168 202.488C35.6167 203.561 35.8586 204.797 35.7074 206.018C35.5793 208.079 35.0739 210.1 34.2164 211.979C33.2481 213.929 32.1604 215.818 30.9595 217.635L13.8671 228.671Z" fill="#FD836D"/>
<g opacity="0.65">
<path opacity="0.65" d="M13.8671 228.671C12.8468 229.252 9.94316 227.016 9.15839 226.475C7.78007 225.536 6.66662 224.258 5.9251 222.765C5.09767 221.061 4.8233 219.141 5.14032 217.274C5.30357 216.289 5.53432 215.317 5.83093 214.364C6.1056 213.422 6.37242 212.481 6.61571 211.54C6.9458 210.629 7.08471 209.659 7.02379 208.692C6.78051 206.763 5.06185 205.414 3.50798 204.245C1.78147 202.958 -0.00782206 201.256 2.57217e-05 198.934C0.123738 197.131 0.844354 195.42 2.0483 194.071C3.16268 192.659 4.48111 191.42 5.48563 189.929C6.27644 188.895 6.68911 187.622 6.65495 186.321C6.54683 185.526 6.27996 184.76 5.87017 184.07C5.08539 182.556 3.971 181.168 3.40596 179.544C2.84092 177.92 2.9194 175.896 4.19074 174.735C5.22665 173.778 6.78051 173.645 8.18526 173.739C9.50568 173.901 10.7751 174.348 11.9051 175.049C15.5936 177.096 17.7046 181.466 21.6207 183.042C23.1641 183.528 24.7368 183.916 26.3293 184.203C27.8989 184.619 29.5077 185.427 30.2532 186.878C31.6894 189.749 29.0211 193.287 30.0335 196.33C30.9281 199.028 33.5493 200.056 35.0168 202.488C35.6167 203.561 35.8586 204.797 35.7074 206.018C35.5793 208.079 35.0739 210.1 34.2164 211.979C33.2481 213.929 32.1604 215.818 30.9595 217.635L13.8671 228.671Z" fill="white"/>
</g>
<path d="M23.7239 222.898C23.6634 222.896 23.6039 222.882 23.5489 222.856C23.4939 222.831 23.4445 222.795 23.4036 222.751C23.3627 222.706 23.3311 222.654 23.3106 222.597C23.2901 222.54 23.2812 222.48 23.2844 222.419C24.0692 204.19 15.4366 184.054 9.15841 178.21C9.08203 178.124 9.04047 178.013 9.04184 177.897C9.04321 177.782 9.08741 177.672 9.16581 177.588C9.24422 177.504 9.35121 177.451 9.46591 177.442C9.58062 177.432 9.69482 177.466 9.78623 177.535C16.1586 183.505 24.9324 203.97 24.1633 222.458C24.1576 222.573 24.1095 222.682 24.0283 222.763C23.9471 222.844 23.8386 222.892 23.7239 222.898Z" fill="white"/>
<path d="M20.7574 200.613H20.624C16.3121 199.42 11.8837 198.697 7.41617 198.456C7.3557 198.454 7.29623 198.44 7.24124 198.415C7.18626 198.389 7.13686 198.353 7.09594 198.309C7.05502 198.264 7.0234 198.212 7.00292 198.155C6.98245 198.098 6.97353 198.038 6.9767 197.977C6.97761 197.917 6.99092 197.857 7.01581 197.801C7.0407 197.746 7.07665 197.696 7.12146 197.655C7.16626 197.614 7.21899 197.582 7.27641 197.562C7.33383 197.542 7.39474 197.534 7.45541 197.538C12.0121 197.775 16.5299 198.504 20.9301 199.711C21.0452 199.751 21.1406 199.833 21.1962 199.941C21.2518 200.05 21.2633 200.175 21.2283 200.292C21.197 200.39 21.1336 200.475 21.0483 200.534C20.963 200.592 20.8606 200.62 20.7574 200.613Z" fill="white"/>
<path d="M186.879 361.252C286.995 361.252 368.155 314.417 368.155 256.643C368.155 198.87 286.995 152.035 186.879 152.035C86.7634 152.035 5.60339 198.87 5.60339 256.643C5.60339 314.417 86.7634 361.252 186.879 361.252Z" fill="#FAFAFA"/>
<path d="M90.5399 212.05C128.939 189.898 191.188 189.898 229.579 212.05C262.124 230.828 267.068 259.498 244.443 281.297L328.924 329.428C334.072 332.401 334.072 337.217 328.924 340.19L321.328 344.575C316.179 347.548 307.986 347.313 302.995 344.057L229.226 292.49C190.772 314.454 128.837 314.368 90.5713 292.287C52.1485 270.127 52.1485 234.209 90.5399 212.05Z" fill="#E6E6E6"/>
<path d="M106.102 17.2738L99.4472 21.1174C99.4808 20.8257 99.4992 20.5324 99.5021 20.2388V18.3092C99.5021 14.8735 97.0928 13.4851 94.1185 15.1716C92.8368 15.9534 91.7414 17.0054 90.9088 18.2543C90.4143 13.9401 87.0319 12.3321 82.9119 14.701C78.4622 17.2738 74.86 23.5176 74.86 28.6555V31.5342C74.8291 32.6881 75.0627 33.8338 75.5428 34.8836L70.0493 38.0762C69.1739 38.6438 68.4462 39.4114 67.9263 40.3157C67.4064 41.22 67.1092 42.235 67.0593 43.2768C67.0593 45.1829 68.3934 45.9516 70.0493 45.0024L106.149 24.1687C107.02 23.6042 107.746 22.8415 108.265 21.943C108.785 21.0446 109.084 20.0359 109.139 18.9995C109.092 17.0934 107.758 16.3247 106.102 17.2738Z" fill="#F7F7F7"/>
<path d="M18.3246 34.5776L22.0759 31.6831V23.4155C22.0759 16.8578 27.3104 9.24907 32.9843 5.9781C38.6661 2.69927 43.2728 5.35841 43.2728 11.9082V13.1084C44.4703 11.1692 46.1041 9.53618 48.0442 8.33916C52.1329 5.98594 55.4447 7.89205 55.4447 12.6063V13.1554L60.6791 10.1355C63.3709 8.56664 65.5526 9.83738 65.5526 12.9436C65.4612 14.6344 64.9723 16.2797 64.1256 17.7462C63.2788 19.2127 62.0981 20.4589 60.6791 21.3839L18.3246 45.826C15.6329 47.3948 13.4512 46.1162 13.4512 43.0099C13.5425 41.3203 14.0315 39.676 14.8783 38.2108C15.7251 36.7456 16.9059 35.5008 18.3246 34.5776Z" fill="#F7F7F7"/>
<path d="M73.9889 226.467V250.337C73.9889 263.295 82.5587 276.222 99.6904 286.145C133.954 305.92 189.516 305.92 223.779 286.145C240.911 276.253 249.481 263.295 249.481 250.337V226.467C249.481 213.509 240.911 200.582 223.779 190.667C189.516 170.892 133.954 170.892 99.6904 190.667C82.5587 200.55 73.9889 213.509 73.9889 226.467ZM240.99 226.467C240.99 236.837 233.369 246.94 219.534 254.925C204.231 263.758 183.709 268.621 161.735 268.621C139.761 268.621 119.239 263.758 103.936 254.925C90.1004 246.94 82.4802 236.837 82.4802 226.467C82.4802 216.097 90.1004 205.994 103.936 198.009C119.239 189.176 139.761 184.313 161.735 184.313C183.709 184.313 204.238 189.176 219.534 198.009C233.377 205.994 240.99 216.121 240.99 226.467Z" fill="#FD836D"/>
<path opacity="0.2" d="M73.9889 226.467V250.337C73.9889 263.295 82.5587 276.222 99.6904 286.145C133.954 305.92 189.516 305.92 223.779 286.145C240.911 276.253 249.481 263.295 249.481 250.337V226.467C249.481 213.509 240.911 200.582 223.779 190.667C189.516 170.892 133.954 170.892 99.6904 190.667C82.5587 200.55 73.9889 213.509 73.9889 226.467ZM240.99 226.467C240.99 236.837 233.369 246.94 219.534 254.925C204.231 263.758 183.709 268.621 161.735 268.621C139.761 268.621 119.239 263.758 103.936 254.925C90.1004 246.94 82.4802 236.837 82.4802 226.467C82.4802 216.097 90.1004 205.994 103.936 198.009C119.239 189.176 139.761 184.313 161.735 184.313C183.709 184.313 204.238 189.176 219.534 198.009C233.377 205.994 240.99 216.121 240.99 226.467Z" fill="white"/>
<path opacity="0.6" d="M249.395 252.564C248.029 260.777 244.411 266.958 229.838 278.324C209.238 294.405 157.073 300.97 126.797 290.985C98.2386 281.572 89.1273 263.146 89.1273 250.509L89.2058 243.081C84.7953 237.833 82.4724 232.193 82.4724 226.467C82.4724 220.6 84.9131 214.819 89.5354 209.461L89.6374 198.997H88.0129C78.6662 207.335 73.989 216.897 73.989 226.451V250.321C73.989 263.279 82.5587 276.206 99.6904 286.129C133.954 305.904 189.516 305.904 223.78 286.129C239.93 276.826 248.469 264.754 249.395 252.564Z" fill="#FD836D"/>
<path d="M223.786 190.667C189.515 170.892 133.96 170.892 99.6969 190.667C65.4335 210.442 65.4256 242.5 99.6969 262.275C133.968 282.05 189.515 282.05 223.786 262.275C258.057 242.5 258.049 210.442 223.786 190.667ZM219.54 254.925C204.237 263.758 183.707 268.621 161.741 268.621C139.776 268.621 119.246 263.758 103.935 254.925C90.0991 246.94 82.4789 236.837 82.4789 226.467C82.4789 216.097 90.0991 205.994 103.935 198.009C119.238 189.176 139.768 184.313 161.741 184.313C183.715 184.313 204.237 189.176 219.54 198.009C233.376 205.994 240.996 216.105 240.996 226.467C240.996 236.829 233.376 246.94 219.54 254.925Z" fill="#FD836D"/>
<path opacity="0.5" d="M223.786 190.667C189.515 170.892 133.96 170.892 99.6969 190.667C65.4335 210.442 65.4256 242.5 99.6969 262.275C133.968 282.05 189.515 282.05 223.786 262.275C258.057 242.5 258.049 210.442 223.786 190.667ZM219.54 254.925C204.237 263.758 183.707 268.621 161.741 268.621C139.776 268.621 119.246 263.758 103.935 254.925C90.0991 246.94 82.4789 236.837 82.4789 226.467C82.4789 216.097 90.0991 205.994 103.935 198.009C119.238 189.176 139.768 184.313 161.741 184.313C183.715 184.313 204.237 189.176 219.54 198.009C233.376 205.994 240.996 216.105 240.996 226.467C240.996 236.829 233.376 246.94 219.54 254.925Z" fill="white"/>
<path d="M241.005 226.467C240.955 230.682 239.77 234.806 237.576 238.406C234.099 232.389 227.97 226.741 219.526 221.886C204.239 213.046 183.701 208.182 161.727 208.182C139.753 208.182 119.231 213.046 103.936 221.886C95.4997 226.741 89.3784 232.389 85.8862 238.406C83.7092 234.799 82.5335 230.678 82.4802 226.467C82.4802 216.105 90.1004 205.994 103.944 198.001C119.239 189.184 139.769 184.313 161.735 184.313C183.701 184.313 204.246 189.184 219.534 198.001C233.385 205.994 241.005 216.121 241.005 226.467Z" fill="#FD836D"/>
<path opacity="0.3" d="M241.005 226.467C240.955 230.682 239.77 234.806 237.576 238.406C234.099 232.389 227.97 226.741 219.526 221.886C204.239 213.046 183.701 208.182 161.727 208.182C139.753 208.182 119.231 213.046 103.936 221.886C95.4997 226.741 89.3784 232.389 85.8862 238.406C83.7092 234.799 82.5335 230.678 82.4802 226.467C82.4802 216.105 90.1004 205.994 103.944 198.001C119.239 189.184 139.769 184.313 161.735 184.313C183.701 184.313 204.246 189.184 219.534 198.001C233.385 205.994 241.005 216.121 241.005 226.467Z" fill="white"/>
<path opacity="0.6" d="M103.944 198.001C90.1004 205.994 82.4802 216.105 82.4802 226.467C82.5359 230.679 83.7143 234.8 85.894 238.406C89.3941 232.389 95.5154 226.741 103.944 221.886C107.508 219.848 111.211 218.063 115.025 216.544C111.682 217.838 101.417 221.141 105.16 211.359C109.61 199.742 131.325 187.16 147.279 185.074C130.87 186.697 115.825 191.153 103.944 198.001Z" fill="#FD836D"/>
<path opacity="0.4" d="M219.542 208.818C204.239 199.985 183.709 195.122 161.743 195.122C139.777 195.122 119.239 199.985 103.936 208.818C92.5254 215.407 85.3525 223.439 83.1865 231.871C85.3525 240.304 92.5254 248.344 103.936 254.925C119.247 263.758 139.769 268.621 161.743 268.621C183.717 268.621 204.239 263.758 219.542 254.925C230.96 248.336 238.133 240.304 240.291 231.871C238.141 223.439 230.96 215.407 219.542 208.818Z" fill="white"/>
<path d="M98.0738 237.346C102.979 241.19 108.543 243.622 114.217 245.551C119.906 247.435 125.734 248.872 131.647 249.85C143.462 251.767 155.444 252.451 167.401 251.889C173.373 251.623 179.353 251.066 185.294 250.266C191.216 249.471 197.084 248.315 202.865 246.806C208.618 245.368 214.184 243.262 219.448 240.531C220.747 239.839 222.005 239.072 223.214 238.233C224.429 237.404 225.581 236.486 226.66 235.487C227.748 234.483 228.719 233.36 229.555 232.138C230.421 230.883 231.08 229.498 231.51 228.035C231.535 229.639 231.269 231.233 230.725 232.742C230.149 234.258 229.395 235.701 228.48 237.04C227.576 238.39 226.546 239.65 225.404 240.806C224.274 241.966 223.07 243.053 221.802 244.061C216.688 247.957 211.019 251.067 204.984 253.286C199.034 255.527 192.896 257.235 186.644 258.392C180.424 259.569 174.131 260.316 167.809 260.628C155.12 261.291 142.405 259.938 130.14 256.619C124.004 254.939 118.078 252.571 112.474 249.56C109.684 248.031 107.032 246.262 104.548 244.273C103.928 243.779 103.347 243.237 102.751 242.704C102.155 242.171 101.59 241.629 101.048 241.057C99.955 239.905 98.9601 238.664 98.0738 237.346Z" fill="white"/>
<path d="M221.174 277.469C221.28 275.336 221.888 273.258 222.949 271.404C224.009 269.551 225.493 267.973 227.28 266.801C228.959 265.821 230.489 265.719 231.604 266.346L251.16 277.524C252.267 278.16 252.958 279.532 252.965 281.446C252.858 283.579 252.249 285.656 251.189 287.51C250.128 289.363 248.645 290.941 246.86 292.114C245.165 293.103 243.627 293.205 242.512 292.561L222.963 281.391C221.88 280.811 221.182 279.438 221.174 277.469Z" fill="#E1E1E1"/>
<path d="M223.003 281.446C221.88 280.811 221.182 279.438 221.174 277.469C221.202 275.882 221.557 274.317 222.218 272.873L250.321 288.969C249.406 290.254 248.243 291.342 246.899 292.169C245.204 293.158 243.666 293.259 242.551 292.616L223.003 281.446Z" fill="#B2B2B2"/>
<path d="M317.749 309.316L255.516 277.618L255.437 277.571C253.993 276.787 252.032 276.928 249.873 278.183C245.463 280.756 241.908 286.968 241.931 292.067C241.931 294.624 242.85 296.413 244.286 297.244L302.775 334.896C304.458 335.96 306.338 336.675 308.304 336.998C310.269 337.321 312.279 337.244 314.214 336.774C316.15 336.303 317.97 335.448 319.567 334.259C321.165 333.07 322.506 331.571 323.512 329.853C324.517 328.134 325.166 326.231 325.419 324.257C325.673 322.282 325.526 320.277 324.988 318.36C324.449 316.444 323.53 314.655 322.285 313.101C321.04 311.547 319.494 310.26 317.741 309.316H317.749Z" fill="#E1E1E1"/>
<path d="M244.294 297.26L302.783 334.911C304.958 336.276 307.449 337.052 310.014 337.164C312.579 337.276 315.129 336.72 317.415 335.55C319.7 334.38 321.642 332.637 323.05 330.491C324.458 328.346 325.284 325.871 325.448 323.31C324.325 328.181 316.273 332.323 306.291 326.746C296.309 321.168 259.33 297.801 242.528 288.129C242.133 289.4 241.927 290.721 241.916 292.051C241.924 294.64 242.85 296.428 244.294 297.26Z" fill="#B3B3B3"/>
<path d="M244.294 297.26C242.834 296.428 241.939 294.64 241.939 292.083C241.939 286.984 245.471 280.771 249.881 278.199C252.039 276.944 254.001 276.81 255.445 277.587L260.939 280.379C259.455 279.595 257.454 279.72 255.233 281.007C250.713 283.642 247.064 290.02 247.087 295.252C247.087 297.872 247.99 299.746 249.481 300.594" fill="#FD836D"/>
<path opacity="0.2" d="M249.473 300.594C247.982 299.746 247.119 297.872 247.08 295.252C247.088 293.865 247.302 292.488 247.715 291.165C245.84 290.051 244.09 289.031 242.528 288.129C242.33 288.785 242.175 289.453 242.065 290.129C242.018 290.459 241.979 290.788 241.947 291.118C241.947 291.447 241.908 291.769 241.947 292.083C241.947 294.64 242.865 296.428 244.301 297.26L249.473 300.594Z" fill="black"/>
<path d="M95.4761 333.594L48.3895 310.053L29.6333 318.345L95.4761 333.594Z" fill="#FD836D"/>
<g opacity="0.15">
<path opacity="0.15" d="M95.4761 333.594L48.3895 310.053L29.6333 318.345L95.4761 333.594Z" fill="white"/>
</g>
<path d="M95.4761 333.594L53.9928 305.881L61.4246 295.205L95.4761 333.594Z" fill="#FD836D"/>
<g opacity="0.15">
<path opacity="0.15" d="M95.4761 333.594L53.9928 305.881L61.4246 295.205L95.4761 333.594Z" fill="white"/>
</g>
<path d="M53.9928 305.881L54.7776 313.246L95.4761 333.594L53.9928 305.881Z" fill="#FD836D"/>
<g opacity="0.2">
<path opacity="0.2" d="M53.9928 305.881L54.7776 313.246L95.4761 333.594L53.9928 305.881Z" fill="black"/>
</g>
<path d="M47.283 304.469C47.397 304.466 47.5059 304.421 47.589 304.343C47.6851 304.248 47.743 304.122 47.7517 303.987C47.7604 303.853 47.7192 303.72 47.6361 303.614L46.7336 302.406C46.697 302.355 46.6499 302.312 46.5955 302.281C46.5412 302.25 46.4807 302.23 46.4183 302.224C46.3558 302.218 46.2928 302.226 46.2335 302.246C46.1742 302.267 46.1199 302.3 46.0744 302.343C45.9787 302.437 45.9204 302.563 45.9103 302.697C45.9002 302.831 45.9389 302.965 46.0194 303.072C46.3177 303.472 46.6237 303.857 46.9298 304.257C46.9683 304.317 47.0202 304.367 47.0815 304.404C47.1428 304.441 47.2117 304.463 47.283 304.469Z" fill="#455A64"/>
<path d="M43.1472 299.119C42.5874 298.304 42.0459 297.48 41.5227 296.648C41.4519 296.534 41.4248 296.398 41.4465 296.266C41.4681 296.133 41.537 296.013 41.6404 295.927C41.6892 295.888 41.7458 295.86 41.8064 295.846C41.8669 295.831 41.9299 295.83 41.991 295.842C42.0522 295.853 42.11 295.878 42.1606 295.915C42.2111 295.951 42.2532 295.998 42.2839 296.052C42.8097 296.876 43.3434 297.692 43.8535 298.5C43.9303 298.61 43.9633 298.745 43.9458 298.879C43.9284 299.012 43.8619 299.134 43.7593 299.221C43.6831 299.287 43.5855 299.324 43.4846 299.323C43.4168 299.316 43.3514 299.294 43.2931 299.259C43.2347 299.224 43.1849 299.176 43.1472 299.119ZM38.9957 292.381C38.517 291.511 38.0461 290.624 37.5988 289.738C37.5373 289.618 37.5217 289.481 37.555 289.351C37.5882 289.221 37.668 289.107 37.7793 289.032C37.8333 288.999 37.8938 288.977 37.9568 288.97C38.0198 288.962 38.0837 288.968 38.1441 288.988C38.2045 289.007 38.2599 289.039 38.3067 289.082C38.3535 289.125 38.3904 289.177 38.4149 289.236C38.8544 290.106 39.3174 290.977 39.7883 291.84C39.8552 291.957 39.8769 292.094 39.8494 292.225C39.8219 292.357 39.7471 292.474 39.6392 292.554C39.5659 292.599 39.4819 292.623 39.3959 292.624C39.3136 292.623 39.2331 292.6 39.1628 292.557C39.0924 292.514 39.0347 292.454 38.9957 292.381ZM35.4956 285.196C35.1032 284.263 34.7108 283.321 34.3812 282.388C34.333 282.264 34.332 282.127 34.3783 282.003C34.4246 281.879 34.515 281.775 34.6323 281.713C34.6908 281.689 34.7537 281.676 34.8172 281.677C34.8807 281.678 34.9433 281.692 35.0009 281.719C35.0586 281.746 35.11 281.784 35.152 281.832C35.1939 281.879 35.2254 281.935 35.2444 281.996C35.5819 282.913 35.9507 283.839 36.3431 284.757C36.3959 284.88 36.4019 285.018 36.3599 285.145C36.318 285.272 36.2311 285.38 36.1155 285.447C36.0546 285.478 35.9875 285.494 35.9193 285.494C35.8273 285.491 35.7381 285.462 35.6627 285.409C35.5874 285.356 35.5293 285.282 35.4956 285.196ZM32.7802 277.603C32.4977 276.623 32.2309 275.626 31.9954 274.662C31.958 274.534 31.9713 274.396 32.0327 274.278C32.0941 274.159 32.1988 274.069 32.3251 274.026C32.3865 274.01 32.4506 274.007 32.5133 274.016C32.5761 274.026 32.6362 274.048 32.69 274.082C32.7437 274.116 32.7899 274.161 32.8257 274.213C32.8614 274.265 32.8861 274.325 32.8979 274.387C33.1255 275.344 33.3845 276.317 33.6827 277.281C33.7227 277.408 33.7143 277.544 33.6592 277.664C33.604 277.785 33.5062 277.88 33.3845 277.933H33.2432C33.141 277.934 33.0409 277.903 32.9575 277.844C32.8742 277.785 32.8121 277.7 32.7802 277.603ZM30.9595 269.673C30.8026 268.677 30.6613 267.657 30.5436 266.645C30.5206 266.515 30.5497 266.381 30.6246 266.273C30.6995 266.164 30.8142 266.089 30.9438 266.064C31.0725 266.056 31.1995 266.098 31.2977 266.181C31.396 266.265 31.4577 266.383 31.4696 266.512C31.5795 267.508 31.7208 268.512 31.8777 269.492C31.9042 269.62 31.8807 269.753 31.8121 269.864C31.7434 269.975 31.635 270.055 31.5089 270.088H31.4226C31.3094 270.083 31.2017 270.038 31.1174 269.963C31.0331 269.887 30.9774 269.785 30.9595 269.673ZM30.1748 261.546C30.1748 260.762 30.1277 259.977 30.1277 259.138V258.479C30.1245 258.415 30.134 258.352 30.1555 258.291C30.1771 258.231 30.2104 258.176 30.2534 258.128C30.2964 258.081 30.3483 258.043 30.4062 258.015C30.4641 257.988 30.5268 257.972 30.5907 257.969C30.7205 257.979 30.8411 258.04 30.9264 258.139C31.0116 258.237 31.0545 258.365 31.0459 258.495V259.138C31.0459 259.923 31.0459 260.707 31.0459 261.491C31.0569 261.622 31.0162 261.752 30.9326 261.853C30.849 261.954 30.7291 262.019 30.5985 262.033C30.4807 262.017 30.3725 261.959 30.2944 261.87C30.2163 261.78 30.1738 261.665 30.1748 261.546ZM30.7947 253.945C30.6663 253.922 30.5516 253.851 30.4742 253.746C30.3968 253.641 30.3627 253.51 30.3788 253.381C30.4651 252.369 30.575 251.341 30.7006 250.329C30.7053 250.265 30.7232 250.203 30.753 250.146C30.7828 250.089 30.824 250.039 30.874 249.998C30.924 249.958 30.9818 249.928 31.0437 249.911C31.1057 249.894 31.1705 249.889 31.2342 249.898C31.3624 249.924 31.4752 250 31.5484 250.108C31.6217 250.217 31.6498 250.35 31.6266 250.478C31.501 251.475 31.3912 252.486 31.3048 253.475C31.2993 253.596 31.2489 253.712 31.1635 253.799C31.078 253.886 30.9635 253.938 30.8418 253.945H30.7947ZM31.8934 245.929C31.7678 245.889 31.6621 245.803 31.5979 245.687C31.5338 245.572 31.5159 245.437 31.5481 245.309C31.7522 244.313 31.9876 243.317 32.2466 242.336C32.2583 242.274 32.2829 242.215 32.3188 242.163C32.3547 242.111 32.4011 242.066 32.455 242.033C32.5089 242 32.5692 241.978 32.632 241.97C32.6947 241.961 32.7586 241.966 32.8195 241.983C32.9437 242.031 33.0456 242.124 33.1051 242.243C33.1646 242.362 33.1775 242.498 33.1412 242.626C32.8901 243.583 32.6547 244.572 32.4506 245.544C32.4343 245.653 32.3807 245.752 32.299 245.825C32.2173 245.898 32.1128 245.94 32.0033 245.944L31.8934 245.929ZM34.0123 238.171C33.8929 238.113 33.7999 238.012 33.7519 237.888C33.7038 237.765 33.7044 237.628 33.7534 237.504C34.0908 236.563 34.4675 235.614 34.8599 234.688C34.8821 234.63 34.9162 234.576 34.9601 234.531C35.0039 234.486 35.0567 234.451 35.1149 234.427C35.1731 234.404 35.2356 234.392 35.2984 234.394C35.3613 234.396 35.423 234.411 35.4799 234.437C35.5942 234.506 35.6801 234.614 35.7218 234.74C35.7636 234.867 35.7585 235.004 35.7075 235.128C35.3151 236.037 34.9227 236.963 34.6166 237.889C34.5872 237.981 34.5298 238.061 34.4524 238.119C34.375 238.176 34.2815 238.208 34.185 238.21C34.125 238.212 34.0655 238.199 34.0123 238.171ZM37.2378 230.884C37.1272 230.806 37.0493 230.69 37.0189 230.559C36.9885 230.427 37.0077 230.289 37.073 230.17C37.5517 229.299 38.0539 228.429 38.5641 227.589C38.5942 227.534 38.636 227.485 38.6866 227.447C38.7372 227.409 38.7955 227.383 38.8573 227.369C38.9192 227.356 38.9832 227.356 39.045 227.37C39.1068 227.383 39.1649 227.41 39.2154 227.448C39.3187 227.534 39.3881 227.654 39.4111 227.786C39.4341 227.918 39.4093 228.054 39.341 228.17C38.8309 228.994 38.3365 229.849 37.8734 230.704C37.8361 230.778 37.779 230.841 37.7085 230.885C37.6379 230.929 37.5565 230.953 37.4732 230.955C37.3895 230.954 37.3077 230.93 37.2378 230.884ZM41.405 224.224C41.3098 224.131 41.2518 224.007 41.2417 223.874C41.2316 223.741 41.2701 223.609 41.35 223.503C41.9386 222.718 42.5586 221.934 43.1786 221.197C43.2191 221.149 43.2696 221.11 43.3265 221.084C43.3834 221.057 43.4454 221.044 43.5082 221.044C43.5709 221.044 43.6329 221.057 43.6898 221.084C43.7468 221.11 43.7973 221.149 43.8378 221.197C43.9271 221.297 43.9765 221.427 43.9765 221.561C43.9765 221.696 43.9271 221.826 43.8378 221.926C43.2256 222.656 42.6214 223.409 42.0406 224.185C41.9996 224.243 41.9456 224.29 41.8828 224.323C41.82 224.355 41.7504 224.373 41.6796 224.373C41.6197 224.372 41.5608 224.358 41.5067 224.333C41.4526 224.307 41.4045 224.27 41.3657 224.224H41.405ZM46.4511 218.357C46.3617 218.256 46.3124 218.127 46.3124 217.992C46.3124 217.858 46.3617 217.728 46.4511 217.628C47.1417 216.945 47.8558 216.278 48.57 215.651C48.6171 215.609 48.6727 215.578 48.733 215.559C48.7932 215.54 48.8568 215.535 48.9193 215.543C48.9819 215.551 49.0419 215.573 49.0954 215.606C49.1489 215.64 49.1945 215.684 49.2292 215.737C49.3052 215.848 49.339 215.983 49.3246 216.116C49.3102 216.25 49.2486 216.374 49.1507 216.467C48.4444 217.078 47.746 217.729 47.0632 218.396C46.9827 218.479 46.8727 218.527 46.7571 218.53C46.6903 218.528 46.6247 218.512 46.5649 218.482C46.5052 218.453 46.4529 218.41 46.4118 218.357H46.4511ZM52.2271 213.392C52.1627 213.275 52.1415 213.14 52.1674 213.009C52.1932 212.878 52.2644 212.761 52.3683 212.678C53.1531 212.113 53.9379 211.588 54.7227 211.109C54.7764 211.077 54.8363 211.057 54.8984 211.05C54.9605 211.043 55.0233 211.05 55.0827 211.069C55.1421 211.088 55.1967 211.12 55.2429 211.162C55.2891 211.204 55.3258 211.256 55.3505 211.313C55.4115 211.431 55.4268 211.568 55.3935 211.697C55.3602 211.825 55.2806 211.937 55.17 212.011C54.3852 212.482 53.6004 213 52.8156 213.58C52.7421 213.632 52.6544 213.659 52.5645 213.658C52.4843 213.649 52.4077 213.62 52.3419 213.573C52.276 213.527 52.223 213.464 52.1878 213.392H52.2271Z" fill="#455A64"/>
<path d="M59.1331 210.002H59.2744C59.6889 209.845 60.1171 209.727 60.5536 209.649C60.6824 209.621 60.7952 209.544 60.8683 209.434C60.9415 209.324 60.9693 209.191 60.9459 209.061C60.941 208.997 60.9234 208.935 60.8942 208.879C60.865 208.822 60.8246 208.772 60.7757 208.731C60.7267 208.69 60.67 208.659 60.6089 208.64C60.5479 208.622 60.4837 208.615 60.4201 208.622C59.934 208.713 59.4562 208.844 58.9919 209.014C58.8676 209.063 58.7668 209.158 58.7099 209.279C58.6531 209.4 58.6444 209.538 58.6858 209.665C58.7155 209.761 58.7746 209.845 58.8549 209.906C58.9352 209.966 59.0326 210 59.1331 210.002Z" fill="#455A64"/>
<path d="M279.499 29.5498L231.235 14.7637L268.418 40.2961L279.499 29.5498Z" fill="#FD836D"/>
<path opacity="0.15" d="M279.499 29.5498L231.235 14.7637L268.418 40.2961L279.499 29.5498Z" fill="white"/>
<path d="M231.235 14.7633L283.179 23.1172L294.26 12.3708L231.235 14.7633Z" fill="#FD836D"/>
<path opacity="0.15" d="M231.235 14.7633L283.179 23.1172L294.26 12.3708L231.235 14.7633Z" fill="white"/>
<path d="M283.179 23.1177L283.234 35.9507L279.499 29.5499L231.235 14.7637L283.179 23.1177Z" fill="#FD836D"/>
<path opacity="0.2" d="M283.179 23.1177L283.234 35.9507L279.499 29.5499L231.235 14.7637L283.179 23.1177Z" fill="black"/>
<path d="M283.234 35.9504L275.802 33.1265L279.499 29.5496L283.234 35.9504Z" fill="#FD836D"/>
<path opacity="0.2" d="M279.499 29.5496L275.802 33.1272L276.987 33.5823L279.499 29.5496Z" fill="black"/>
<path d="M292.966 27.2906C292.92 27.3241 292.883 27.3664 292.854 27.4149C292.826 27.4634 292.808 27.5171 292.801 27.5729C292.784 27.7067 292.817 27.842 292.892 27.9542C292.966 28.0663 293.079 28.148 293.209 28.1845L294.637 28.5687C294.697 28.5876 294.76 28.5931 294.823 28.585C294.885 28.5768 294.945 28.5552 294.998 28.5216C295.051 28.488 295.096 28.4433 295.13 28.3904C295.164 28.3376 295.186 28.2781 295.194 28.2159C295.213 28.0839 295.184 27.9495 295.112 27.8373C295.04 27.7251 294.93 27.6424 294.802 27.6043L293.358 27.22C293.292 27.2007 293.222 27.197 293.153 27.2092C293.085 27.2215 293.021 27.2493 292.966 27.2906Z" fill="#455A64"/>
<path d="M299.503 29.0397C300.437 29.3534 301.37 29.6829 302.289 30.0202C302.415 30.0678 302.519 30.1587 302.584 30.2767C302.649 30.3946 302.669 30.5317 302.642 30.6634C302.626 30.7241 302.596 30.7806 302.556 30.829C302.516 30.8775 302.466 30.9168 302.41 30.9443C302.353 30.9719 302.291 30.9869 302.229 30.9885C302.166 30.9901 302.103 30.9782 302.045 30.9536C301.135 30.6163 300.209 30.2947 299.283 29.981C299.157 29.9379 299.051 29.8505 298.984 29.7351C298.918 29.6196 298.896 29.484 298.922 29.3534C298.94 29.2528 298.996 29.163 299.079 29.1024C299.139 29.0574 299.209 29.028 299.283 29.017C299.357 29.0061 299.432 29.0139 299.503 29.0397ZM306.887 31.8792C307.806 32.2871 308.708 32.6636 309.603 33.1421C309.724 33.1987 309.82 33.2982 309.872 33.4213C309.924 33.5444 309.929 33.6825 309.885 33.8089C309.862 33.8674 309.826 33.9203 309.781 33.9641C309.736 34.008 309.682 34.0417 309.622 34.0632C309.563 34.0847 309.5 34.0934 309.437 34.0888C309.374 34.0841 309.313 34.0663 309.257 34.0363C308.379 33.6049 307.484 33.1892 306.581 32.797C306.46 32.7419 306.362 32.6452 306.306 32.5243C306.25 32.4034 306.239 32.2663 306.275 32.1381C306.301 32.0534 306.353 31.9792 306.424 31.9263C306.49 31.8775 306.568 31.8474 306.649 31.8391C306.731 31.8308 306.813 31.8447 306.887 31.8792ZM314.029 35.4796C314.908 35.9817 315.771 36.5072 316.619 37.0484C316.732 37.1185 316.815 37.227 316.854 37.3539C316.893 37.4808 316.885 37.6175 316.831 37.7387C316.799 37.7942 316.757 37.8426 316.706 37.8807C316.655 37.9187 316.596 37.9457 316.534 37.9597C316.472 37.9738 316.408 37.9746 316.345 37.9622C316.283 37.9498 316.223 37.9245 316.171 37.8878C315.34 37.3622 314.484 36.8523 313.621 36.3189C313.504 36.2541 313.416 36.1486 313.373 36.0227C313.329 35.8968 313.334 35.7593 313.385 35.6365C313.411 35.5712 313.455 35.5142 313.511 35.4718C313.589 35.4223 313.679 35.3967 313.771 35.3981C313.863 35.3995 313.953 35.4279 314.029 35.4796ZM320.794 39.8801C321.618 40.4841 322.426 41.1117 323.203 41.7392C323.308 41.8202 323.379 41.9381 323.401 42.069C323.423 42.2 323.394 42.3344 323.321 42.4451C323.282 42.4959 323.233 42.538 323.177 42.5687C323.121 42.5993 323.059 42.6178 322.996 42.623C322.932 42.6282 322.868 42.6199 322.808 42.5987C322.747 42.5775 322.692 42.5439 322.646 42.5001C321.861 41.8804 321.076 41.2685 320.291 40.6724C320.181 40.5959 320.104 40.4809 320.075 40.3501C320.046 40.2193 320.067 40.0823 320.135 39.9664C320.157 39.9253 320.19 39.8903 320.229 39.8645C320.313 39.8079 320.412 39.7791 320.514 39.7819C320.615 39.7847 320.713 39.819 320.794 39.8801ZM327.033 45.12C327.77 45.8181 328.5 46.5397 329.207 47.2771C329.298 47.372 329.349 47.4985 329.349 47.6301C329.349 47.7616 329.298 47.8881 329.207 47.9831C329.161 48.0286 329.108 48.0647 329.048 48.0894C328.989 48.1141 328.925 48.1267 328.861 48.1267C328.797 48.1267 328.734 48.1141 328.674 48.0894C328.615 48.0647 328.561 48.0286 328.516 47.9831C327.825 47.2614 327.103 46.5476 326.381 45.8652C326.283 45.7775 326.222 45.6558 326.21 45.5246C326.198 45.3934 326.237 45.2628 326.319 45.1592L326.381 45.0964C326.474 45.0191 326.591 44.9787 326.712 44.9831C326.832 44.9874 326.946 45.0362 327.033 45.12ZM332.597 51.0971C333.107 51.7168 333.601 52.3443 334.096 52.9876L334.488 53.5131C334.57 53.6134 334.61 53.742 334.598 53.8711C334.586 54.0002 334.524 54.1196 334.425 54.2034C334.372 54.2401 334.312 54.2659 334.248 54.2791C334.185 54.2923 334.119 54.2927 334.056 54.2803C333.992 54.2678 333.932 54.2428 333.878 54.2067C333.824 54.1706 333.778 54.1242 333.743 54.07L333.35 53.5523C332.871 52.9248 332.385 52.3051 331.883 51.6933C331.792 51.5997 331.741 51.4745 331.741 51.3442C331.741 51.214 331.792 51.0888 331.883 50.9952C331.933 50.9501 331.992 50.9161 332.056 50.8951C332.12 50.8741 332.188 50.8667 332.255 50.8734C332.322 50.88 332.388 50.9005 332.446 50.9337C332.505 50.9668 332.556 51.0118 332.597 51.0658V51.0971ZM336.717 57.5293C336.832 57.4686 336.966 57.4542 337.092 57.4892C337.217 57.5242 337.325 57.6059 337.392 57.7175C337.933 58.5804 338.467 59.4589 338.961 60.3453C338.996 60.3991 339.019 60.4593 339.029 60.5222C339.04 60.5852 339.038 60.6496 339.023 60.7117C339.009 60.7738 338.982 60.8324 338.944 60.884C338.907 60.9356 338.859 60.9791 338.804 61.012C338.685 61.0652 338.55 61.0714 338.426 61.0292C338.302 60.987 338.199 60.8996 338.137 60.7845C337.635 59.9139 337.109 59.0432 336.568 58.2039C336.498 58.1042 336.468 57.9821 336.484 57.8616C336.5 57.7411 336.561 57.6309 336.654 57.5528L336.717 57.5293ZM340.696 64.5889C340.821 64.5438 340.959 64.5479 341.081 64.6003C341.203 64.6527 341.301 64.7496 341.355 64.8713C341.787 65.7891 342.21 66.7225 342.595 67.6559C342.622 67.7134 342.637 67.7758 342.64 67.8393C342.642 67.9028 342.632 67.9662 342.609 68.0256C342.586 68.085 342.552 68.1391 342.508 68.1848C342.463 68.2305 342.41 68.2667 342.352 68.2913C342.224 68.3276 342.087 68.3147 341.967 68.2552C341.848 68.1957 341.756 68.0939 341.708 67.9697C341.331 67.0519 340.923 66.1342 340.492 65.24C340.438 65.1427 340.42 65.0295 340.441 64.9204C340.463 64.8112 340.522 64.7133 340.609 64.6438C340.63 64.6013 340.659 64.5639 340.696 64.534V64.5889ZM343.717 72.0408C343.848 72.016 343.983 72.0409 344.096 72.1106C344.209 72.1802 344.292 72.2896 344.329 72.4173C344.627 73.3743 344.91 74.3548 345.153 75.3274C345.172 75.3877 345.178 75.4513 345.17 75.5141C345.163 75.5768 345.142 75.6372 345.109 75.6913C345.077 75.7454 345.033 75.792 344.981 75.8279C344.929 75.8639 344.87 75.8885 344.808 75.9C344.677 75.9171 344.544 75.8848 344.435 75.8094C344.326 75.7341 344.249 75.621 344.219 75.4921C343.976 74.5352 343.701 73.5704 343.435 72.6369C343.401 72.5466 343.397 72.4483 343.422 72.3555C343.448 72.2627 343.501 72.1801 343.576 72.1192C343.611 72.0638 343.66 72.018 343.717 71.9859V72.0408ZM345.601 79.7672C345.735 79.7639 345.866 79.81 345.969 79.8967C346.071 79.9834 346.139 80.1048 346.158 80.2378C346.315 81.2183 346.44 82.2145 346.542 83.2029C346.55 83.2643 346.545 83.3267 346.527 83.386C346.509 83.4452 346.478 83.5 346.437 83.5467C346.397 83.5933 346.346 83.6309 346.29 83.6568C346.234 83.6827 346.173 83.6964 346.111 83.697C345.976 83.6956 345.847 83.6442 345.748 83.5529C345.65 83.4615 345.589 83.3368 345.577 83.2029C345.475 82.238 345.357 81.2654 345.2 80.3006C345.186 80.2193 345.194 80.1357 345.223 80.0585C345.252 79.9813 345.301 79.9132 345.365 79.8613C345.425 79.7874 345.508 79.7351 345.601 79.7122V79.7672Z" fill="#455A64"/>
<path d="M354.194 205.006C352.091 203.751 349.124 203.923 345.828 205.79L286.06 240.304C279.679 243.983 274.5 252.737 274.5 259.851C274.5 263.326 275.74 265.758 277.749 266.911L284.16 270.606C286.256 271.798 289.183 271.61 292.432 269.735L352.209 235.221C358.589 231.542 363.76 222.788 363.76 215.674C363.76 212.222 362.536 209.783 360.543 208.614C359.452 208.018 355.246 205.633 354.194 205.006Z" fill="#E0E0E0"/>
<path d="M287.127 271.031C283.517 271.031 281.272 268.175 281.272 263.586C281.272 256.613 286.366 247.992 292.628 244.384L352.405 209.87C353.944 208.916 355.704 208.375 357.514 208.301C361.124 208.301 363.368 211.157 363.368 215.745C363.368 222.727 358.275 231.339 352.012 234.956L292.236 269.47C290.697 270.425 288.937 270.963 287.127 271.031Z" fill="#FAFAFA"/>
<path d="M357.514 208.661C360.88 208.661 363.007 211.367 363.007 215.721C363.007 222.576 358 231.04 351.848 234.546L292.071 269.06C290.592 269.983 288.9 270.507 287.158 270.582C286.413 270.607 285.671 270.461 284.991 270.155C284.311 269.849 283.71 269.391 283.234 268.817C282.119 267.287 281.565 265.42 281.665 263.53C281.665 256.682 286.672 248.219 292.824 244.705L352.601 210.191C354.08 209.268 355.772 208.744 357.514 208.669V208.661ZM357.514 207.885C355.633 207.956 353.804 208.518 352.209 209.516L292.432 244.03C286.052 247.717 280.88 256.463 280.88 263.577C280.88 268.558 283.415 271.421 287.158 271.421C289.037 271.349 290.866 270.789 292.463 269.798L352.24 235.284C358.62 231.605 363.792 222.851 363.792 215.736C363.792 210.755 361.257 207.892 357.514 207.892V207.885Z" fill="#EBEBEB"/>
<path d="M301.802 251.702C302.046 251.247 302.006 250.776 301.802 250.651L299.801 249.498C299.759 249.476 299.712 249.464 299.664 249.464C299.616 249.464 299.569 249.476 299.526 249.498L297.69 250.204L297.086 248.917C297.056 248.854 297.006 248.802 296.944 248.768L294.943 247.607C294.692 247.466 294.276 247.788 294.111 248.321L292.864 252.408C292.796 252.654 292.653 252.873 292.456 253.035L289.67 255.192C289.222 255.53 289.05 256.361 289.371 256.589L291.388 258.048C291.458 258.119 291.508 258.207 291.536 258.302C291.563 258.398 291.566 258.499 291.545 258.597L291.067 262.574C291.027 262.864 291.114 263.06 291.247 263.13L293.248 264.291C293.405 264.378 293.641 264.291 293.852 264.033L296.348 260.848C296.4 260.761 296.474 260.688 296.562 260.638C296.649 260.587 296.749 260.559 296.85 260.558L299.354 260.832C299.746 260.887 300.209 260.165 300.139 259.624L299.66 256.196C299.638 255.943 299.693 255.689 299.817 255.467L301.802 251.702Z" fill="#FD836D"/>
<path opacity="0.15" d="M301.779 250.635C301.736 250.615 301.689 250.605 301.641 250.605C301.594 250.605 301.547 250.615 301.504 250.635L298.71 251.702C298.674 251.72 298.634 251.73 298.594 251.731C298.553 251.733 298.513 251.726 298.475 251.712C298.438 251.697 298.403 251.674 298.375 251.646C298.346 251.617 298.324 251.583 298.31 251.545L297.666 250.18L299.503 249.482C299.545 249.461 299.592 249.449 299.64 249.449C299.688 249.449 299.735 249.461 299.777 249.482L301.779 250.635Z" fill="white"/>
<path opacity="0.15" d="M294.841 253.553C294.771 253.798 294.629 254.017 294.433 254.18L291.647 256.33C291.519 256.43 291.417 256.559 291.349 256.706L289.348 255.545C289.42 255.4 289.521 255.272 289.646 255.169L292.432 253.019C292.628 252.859 292.77 252.643 292.84 252.4L294.841 253.553Z" fill="white"/>
<path opacity="0.1" d="M296.937 248.76C296.686 248.596 296.262 248.917 296.089 249.466L294.841 253.553L292.84 252.392L294.088 248.305C294.253 247.772 294.669 247.45 294.92 247.592C294.975 247.592 296.67 248.611 296.929 248.753L296.937 248.76Z" fill="black"/>
<path opacity="0.25" d="M293.366 259.193L291.38 258.047L289.363 256.588C289.128 256.416 289.159 255.945 289.363 255.561L291.365 256.722C291.161 257.098 291.129 257.577 291.365 257.749L293.366 259.193Z" fill="black"/>
<path opacity="0.15" d="M293.076 263.719C293.076 264.009 293.123 264.205 293.272 264.284L291.263 263.123C291.184 263.056 291.126 262.968 291.095 262.87C291.064 262.771 291.063 262.665 291.09 262.566L291.569 258.589C291.589 258.495 291.586 258.398 291.562 258.305C291.537 258.213 291.491 258.127 291.428 258.055L293.413 259.201C293.477 259.27 293.523 259.355 293.548 259.446C293.573 259.538 293.575 259.634 293.554 259.726L293.076 263.719Z" fill="black"/>
<path d="M297.062 248.901L298.31 251.553C298.324 251.59 298.347 251.625 298.375 251.654C298.403 251.682 298.438 251.705 298.475 251.72C298.513 251.734 298.553 251.741 298.594 251.739C298.634 251.738 298.674 251.727 298.71 251.709L301.504 250.643C301.944 250.47 302.124 251.098 301.802 251.702L299.785 255.482C299.661 255.704 299.607 255.959 299.628 256.212L300.107 259.64C300.178 260.181 299.715 260.903 299.322 260.848L296.827 260.542C296.725 260.544 296.626 260.571 296.538 260.622C296.45 260.673 296.377 260.745 296.324 260.832L293.86 264.017C293.46 264.527 292.997 264.346 293.075 263.711L293.554 259.734C293.577 259.637 293.574 259.535 293.547 259.439C293.519 259.343 293.468 259.256 293.397 259.185L291.38 257.734C291.059 257.498 291.239 256.675 291.679 256.33L294.465 254.18C294.662 254.018 294.805 253.799 294.873 253.553L296.12 249.466C296.285 248.815 296.858 248.486 297.062 248.901Z" fill="#FD836D"/>
<path opacity="0.5" d="M297.062 248.901L298.31 251.553C298.324 251.59 298.347 251.625 298.375 251.654C298.403 251.682 298.438 251.705 298.475 251.72C298.513 251.734 298.553 251.741 298.594 251.739C298.634 251.738 298.674 251.727 298.71 251.709L301.504 250.643C301.944 250.47 302.124 251.098 301.802 251.702L299.785 255.482C299.661 255.704 299.607 255.959 299.628 256.212L300.107 259.64C300.178 260.181 299.715 260.903 299.322 260.848L296.827 260.542C296.725 260.544 296.626 260.571 296.538 260.622C296.45 260.673 296.377 260.745 296.324 260.832L293.86 264.017C293.46 264.527 292.997 264.346 293.075 263.711L293.554 259.734C293.577 259.637 293.574 259.535 293.547 259.439C293.519 259.343 293.468 259.256 293.397 259.185L291.38 257.734C291.059 257.498 291.239 256.675 291.679 256.33L294.465 254.18C294.662 254.018 294.805 253.799 294.873 253.553L296.12 249.466C296.285 248.815 296.858 248.486 297.062 248.901Z" fill="white"/>
<path d="M315.834 243.622C316.077 243.167 316.03 242.705 315.834 242.579L313.841 241.426C313.797 241.404 313.748 241.393 313.699 241.393C313.65 241.393 313.602 241.404 313.558 241.426L311.73 242.132L311.117 240.846C311.093 240.781 311.045 240.728 310.984 240.697L308.983 239.536C308.732 239.395 308.316 239.716 308.151 240.249L306.848 244.36C306.777 244.604 306.635 244.823 306.44 244.987L303.654 247.136C303.207 247.482 303.034 248.313 303.348 248.54L305.373 249.999C305.442 250.071 305.492 250.159 305.518 250.255C305.544 250.351 305.546 250.452 305.522 250.549L305.051 254.525C305.012 254.816 305.09 255.012 305.224 255.082L307.201 256.204C307.358 256.29 307.586 256.204 307.806 255.945L310.301 252.76C310.353 252.673 310.427 252.601 310.515 252.55C310.603 252.499 310.702 252.472 310.804 252.47L313.299 252.776C313.692 252.823 314.155 252.109 314.084 251.568L313.613 248.14C313.588 247.887 313.643 247.632 313.77 247.411L315.834 243.622Z" fill="#FD836D"/>
<path opacity="0.15" d="M315.787 242.571C315.744 242.552 315.697 242.542 315.65 242.542C315.602 242.542 315.556 242.552 315.512 242.571L312.695 243.638C312.658 243.656 312.618 243.666 312.577 243.668C312.536 243.67 312.495 243.663 312.457 243.649C312.418 243.634 312.384 243.611 312.354 243.583C312.325 243.554 312.302 243.519 312.287 243.481L311.651 242.116L313.48 241.418C313.524 241.397 313.572 241.385 313.621 241.385C313.67 241.385 313.718 241.397 313.762 241.418L315.787 242.571Z" fill="white"/>
<path opacity="0.15" d="M308.849 245.481C308.78 245.727 308.637 245.945 308.441 246.109L305.632 248.282C305.504 248.381 305.401 248.511 305.334 248.658L303.348 247.497C303.426 247.354 303.529 247.226 303.654 247.121L306.44 244.972C306.635 244.807 306.777 244.589 306.848 244.344L308.849 245.481Z" fill="white"/>
<path opacity="0.1" d="M310.945 240.689C310.694 240.524 310.27 240.846 310.097 241.395L308.85 245.481L306.848 244.36L308.096 240.273C308.261 239.74 308.677 239.418 308.928 239.559C308.983 239.559 310.678 240.579 310.929 240.712L310.945 240.689Z" fill="black"/>
<path opacity="0.25" d="M307.374 251.113L305.389 249.976L303.372 248.517C303.144 248.344 303.176 247.874 303.372 247.49L305.381 248.65C305.177 249.027 305.145 249.505 305.381 249.67L307.374 251.113Z" fill="black"/>
<path opacity="0.15" d="M307.052 255.639C307.013 255.937 307.099 256.133 307.241 256.212L305.24 255.051C305.106 254.973 305.028 254.784 305.067 254.494L305.546 250.517C305.564 250.423 305.56 250.327 305.536 250.234C305.511 250.142 305.466 250.056 305.404 249.984L307.39 251.121C307.454 251.191 307.5 251.275 307.525 251.367C307.549 251.458 307.552 251.554 307.531 251.647L307.052 255.639Z" fill="black"/>
<path d="M311.063 240.83L312.31 243.481C312.326 243.519 312.349 243.553 312.378 243.582C312.407 243.611 312.442 243.634 312.48 243.648C312.519 243.663 312.559 243.67 312.6 243.668C312.641 243.666 312.682 243.656 312.719 243.638L315.512 242.571C315.952 242.398 316.132 243.026 315.811 243.622L313.794 247.411C313.666 247.631 313.611 247.887 313.637 248.14L314.108 251.568C314.186 252.109 313.723 252.823 313.323 252.776L310.827 252.47C310.726 252.472 310.626 252.499 310.538 252.55C310.45 252.601 310.377 252.673 310.325 252.76L307.829 255.945C307.429 256.455 306.966 256.275 307.045 255.639L307.523 251.662C307.544 251.565 307.541 251.464 307.514 251.368C307.486 251.272 307.436 251.185 307.366 251.113L305.349 249.662C305.028 249.427 305.2 248.603 305.648 248.258L308.434 246.109C308.631 245.947 308.774 245.727 308.842 245.481L310.089 241.394C310.294 240.743 310.866 240.437 311.063 240.83Z" fill="#FD836D"/>
<path opacity="0.5" d="M311.063 240.83L312.31 243.481C312.326 243.519 312.349 243.553 312.378 243.582C312.407 243.611 312.442 243.634 312.48 243.648C312.519 243.663 312.559 243.67 312.6 243.668C312.641 243.666 312.682 243.656 312.719 243.638L315.512 242.571C315.952 242.398 316.132 243.026 315.811 243.622L313.794 247.411C313.666 247.631 313.611 247.887 313.637 248.14L314.108 251.568C314.186 252.109 313.723 252.823 313.323 252.776L310.827 252.47C310.726 252.472 310.626 252.499 310.538 252.55C310.45 252.601 310.377 252.673 310.325 252.76L307.829 255.945C307.429 256.455 306.966 256.275 307.045 255.639L307.523 251.662C307.544 251.565 307.541 251.464 307.514 251.368C307.486 251.272 307.436 251.185 307.366 251.113L305.349 249.662C305.028 249.427 305.2 248.603 305.648 248.258L308.434 246.109C308.631 245.947 308.774 245.727 308.842 245.481L310.089 241.394C310.294 240.743 310.866 240.437 311.063 240.83Z" fill="white"/>
<path d="M329.819 235.551C330.054 235.096 330.015 234.633 329.819 234.507L327.794 233.378C327.75 233.358 327.701 233.348 327.653 233.348C327.604 233.348 327.556 233.358 327.512 233.378L325.675 234.084L325.071 232.797C325.046 232.733 324.999 232.68 324.937 232.648L322.936 231.487C322.685 231.346 322.261 231.668 322.104 232.201L320.857 236.288C320.785 236.533 320.643 236.751 320.449 236.915L317.655 239.065C317.215 239.41 317.035 240.234 317.357 240.469L319.373 241.928C319.446 241.997 319.499 242.085 319.526 242.181C319.554 242.278 319.555 242.38 319.53 242.477L319.052 246.454C319.052 246.744 319.099 246.932 319.232 247.011L321.233 248.172C321.398 248.258 321.626 248.172 321.845 247.913L324.333 244.728C324.386 244.64 324.461 244.567 324.55 244.516C324.639 244.465 324.74 244.438 324.843 244.438L327.331 244.744C327.731 244.791 328.194 244.077 328.116 243.536L327.645 240.108C327.62 239.855 327.672 239.601 327.794 239.379L329.819 235.551Z" fill="#FD836D"/>
<path opacity="0.15" d="M329.795 234.499C329.751 234.48 329.703 234.47 329.654 234.47C329.605 234.47 329.557 234.48 329.513 234.499L326.727 235.566C326.69 235.584 326.65 235.594 326.609 235.596C326.568 235.598 326.527 235.591 326.488 235.576C326.45 235.562 326.415 235.539 326.386 235.51C326.357 235.482 326.334 235.447 326.319 235.409L325.675 234.044L327.512 233.346C327.554 233.325 327.601 233.314 327.649 233.314C327.697 233.314 327.744 233.325 327.786 233.346L329.795 234.499Z" fill="white"/>
<path opacity="0.15" d="M322.897 237.402C322.826 237.649 322.684 237.87 322.489 238.037L319.703 240.186C319.575 240.288 319.47 240.417 319.397 240.563L317.396 239.402C317.473 239.258 317.577 239.131 317.702 239.026L320.488 236.876C320.683 236.712 320.825 236.494 320.896 236.249L322.897 237.402Z" fill="white"/>
<path opacity="0.1" d="M324.953 232.593C324.702 232.429 324.27 232.75 324.106 233.291L322.897 237.402L320.896 236.249L322.144 232.162C322.308 231.628 322.724 231.307 322.976 231.448C323.03 231.448 324.718 232.468 324.977 232.601L324.953 232.593Z" fill="black"/>
<path opacity="0.25" d="M321.375 243.042L319.397 241.904L317.357 240.438C317.129 240.265 317.153 239.794 317.357 239.41L319.358 240.571C319.162 240.948 319.13 241.426 319.358 241.591L321.375 243.042Z" fill="black"/>
<path opacity="0.15" d="M321.061 247.568C321.021 247.866 321.108 248.062 321.249 248.14L319.248 246.979C319.114 246.901 319.036 246.713 319.067 246.423L319.546 242.438C319.566 242.346 319.565 242.251 319.542 242.159C319.518 242.068 319.474 241.984 319.413 241.912L321.39 243.05C321.452 243.121 321.496 243.205 321.521 243.296C321.545 243.387 321.549 243.483 321.532 243.575L321.061 247.568Z" fill="black"/>
<path d="M325.071 232.758L326.319 235.41C326.334 235.448 326.357 235.482 326.386 235.511C326.415 235.54 326.45 235.562 326.488 235.577C326.527 235.592 326.568 235.599 326.609 235.597C326.65 235.595 326.69 235.585 326.727 235.567L329.513 234.5C329.96 234.327 330.133 234.955 329.819 235.551L327.794 239.34C327.672 239.562 327.62 239.816 327.645 240.069L328.116 243.497C328.194 244.038 327.731 244.752 327.331 244.705L324.843 244.399C324.74 244.399 324.639 244.426 324.55 244.477C324.461 244.528 324.386 244.601 324.333 244.689L321.845 247.874C321.445 248.384 320.982 248.203 321.061 247.568L321.532 243.591C321.555 243.494 321.554 243.393 321.528 243.297C321.502 243.201 321.452 243.113 321.382 243.042L319.358 241.583C319.044 241.355 319.217 240.524 319.664 240.187L322.45 238.037C322.645 237.873 322.787 237.655 322.858 237.41L324.106 233.323C324.302 232.672 324.875 232.343 325.071 232.758Z" fill="#FD836D"/>
<path opacity="0.5" d="M325.071 232.758L326.319 235.41C326.334 235.448 326.357 235.482 326.386 235.511C326.415 235.54 326.45 235.562 326.488 235.577C326.527 235.592 326.568 235.599 326.609 235.597C326.65 235.595 326.69 235.585 326.727 235.567L329.513 234.5C329.96 234.327 330.133 234.955 329.819 235.551L327.794 239.34C327.672 239.562 327.62 239.816 327.645 240.069L328.116 243.497C328.194 244.038 327.731 244.752 327.331 244.705L324.843 244.399C324.74 244.399 324.639 244.426 324.55 244.477C324.461 244.528 324.386 244.601 324.333 244.689L321.845 247.874C321.445 248.384 320.982 248.203 321.061 247.568L321.532 243.591C321.555 243.494 321.554 243.393 321.528 243.297C321.502 243.201 321.452 243.113 321.382 243.042L319.358 241.583C319.044 241.355 319.217 240.524 319.664 240.187L322.45 238.037C322.645 237.873 322.787 237.655 322.858 237.41L324.106 233.323C324.302 232.672 324.875 232.343 325.071 232.758Z" fill="white"/>
<path d="M343.819 227.479C344.063 227.024 344.023 226.561 343.819 226.436L341.826 225.275C341.781 225.255 341.733 225.245 341.685 225.245C341.636 225.245 341.588 225.255 341.543 225.275L339.707 225.981L339.103 224.695C339.076 224.629 339.029 224.574 338.969 224.538C338.718 224.404 337.023 223.416 336.968 223.385C336.717 223.243 336.293 223.565 336.128 224.098L334.881 228.185C334.812 228.429 334.673 228.648 334.48 228.813L331.687 230.962C331.247 231.307 331.067 232.131 331.388 232.366L333.405 233.825C333.477 233.894 333.529 233.98 333.556 234.075C333.584 234.17 333.586 234.27 333.562 234.366L333.084 238.343C333.084 238.633 333.131 238.83 333.264 238.908L335.265 240.069C335.422 240.155 335.658 240.069 335.869 239.81L338.365 236.625C338.417 236.538 338.491 236.466 338.579 236.415C338.666 236.364 338.766 236.337 338.867 236.335L341.363 236.641C341.763 236.688 342.226 235.974 342.148 235.433L341.669 232.005C341.65 231.752 341.705 231.499 341.826 231.276L343.819 227.479Z" fill="#FD836D"/>
<path opacity="0.15" d="M343.796 226.428C343.753 226.409 343.706 226.398 343.658 226.398C343.611 226.398 343.564 226.409 343.521 226.428L340.727 227.495C340.691 227.513 340.651 227.523 340.611 227.525C340.57 227.527 340.53 227.52 340.492 227.505C340.455 227.49 340.42 227.468 340.392 227.439C340.364 227.41 340.341 227.376 340.327 227.338L339.683 225.973L341.52 225.275C341.562 225.252 341.609 225.24 341.657 225.24C341.705 225.24 341.753 225.252 341.795 225.275L343.796 226.428Z" fill="white"/>
<path opacity="0.15" d="M336.866 229.33C336.795 229.577 336.653 229.798 336.458 229.966L333.672 232.115C333.544 232.217 333.439 232.345 333.366 232.492L331.365 231.331C331.439 231.187 331.541 231.059 331.663 230.954L334.449 228.805C334.649 228.643 334.794 228.424 334.865 228.177L336.866 229.33Z" fill="white"/>
<path opacity="0.1" d="M338.962 224.546C338.71 224.381 338.279 224.702 338.114 225.244L336.866 229.331L334.865 228.177L336.113 224.091C336.27 223.557 336.694 223.236 336.945 223.377C337 223.377 338.687 224.397 338.946 224.53L338.962 224.546Z" fill="black"/>
<path opacity="0.25" d="M335.383 234.947L333.405 233.809L331.388 232.35C331.153 232.178 331.184 231.707 331.388 231.323L333.389 232.484C333.185 232.86 333.162 233.339 333.389 233.503L335.383 234.947Z" fill="black"/>
<path opacity="0.15" d="M335.061 239.496C335.061 239.794 335.116 239.99 335.257 240.069L333.24 238.869C333.107 238.79 333.029 238.602 333.06 238.312L333.539 234.327C333.557 234.235 333.555 234.14 333.532 234.049C333.509 233.958 333.465 233.874 333.405 233.802L335.383 234.939C335.445 235.01 335.489 235.095 335.512 235.186C335.535 235.277 335.537 235.373 335.516 235.465L335.061 239.496Z" fill="black"/>
<path d="M339.079 224.687L340.327 227.338C340.342 227.376 340.365 227.411 340.394 227.439C340.424 227.468 340.458 227.491 340.497 227.505C340.535 227.52 340.576 227.527 340.617 227.525C340.658 227.523 340.698 227.513 340.735 227.495L343.521 226.428C343.968 226.255 344.141 226.883 343.819 227.479L341.802 231.268C341.681 231.491 341.627 231.744 341.645 231.997L342.124 235.425C342.203 235.966 341.74 236.68 341.339 236.633L338.844 236.327C338.742 236.329 338.643 236.356 338.555 236.407C338.467 236.458 338.394 236.53 338.341 236.617L335.846 239.802C335.453 240.312 334.99 240.132 335.061 239.496L335.54 235.519C335.565 235.422 335.563 235.32 335.536 235.223C335.508 235.127 335.455 235.039 335.383 234.97L333.366 233.511C333.044 233.284 333.225 232.452 333.664 232.115L336.458 229.966C336.652 229.8 336.793 229.582 336.866 229.338L338.114 225.244C338.31 224.6 338.883 224.271 339.079 224.687Z" fill="#FD836D"/>
<path opacity="0.5" d="M339.079 224.687L340.327 227.338C340.342 227.376 340.365 227.411 340.394 227.439C340.424 227.468 340.458 227.491 340.497 227.505C340.535 227.52 340.576 227.527 340.617 227.525C340.658 227.523 340.698 227.513 340.735 227.495L343.521 226.428C343.968 226.255 344.141 226.883 343.819 227.479L341.802 231.268C341.681 231.491 341.627 231.744 341.645 231.997L342.124 235.425C342.203 235.966 341.74 236.68 341.339 236.633L338.844 236.327C338.742 236.329 338.643 236.356 338.555 236.407C338.467 236.458 338.394 236.53 338.341 236.617L335.846 239.802C335.453 240.312 334.99 240.132 335.061 239.496L335.54 235.519C335.565 235.422 335.563 235.32 335.536 235.223C335.508 235.127 335.455 235.039 335.383 234.97L333.366 233.511C333.044 233.284 333.225 232.452 333.664 232.115L336.458 229.966C336.652 229.8 336.793 229.582 336.866 229.338L338.114 225.244C338.31 224.6 338.883 224.271 339.079 224.687Z" fill="white"/>
<path d="M357.828 219.408C358.071 218.953 358.032 218.49 357.828 218.356L355.826 217.203C355.783 217.184 355.736 217.173 355.689 217.173C355.642 217.173 355.595 217.184 355.552 217.203L353.715 217.909L353.111 216.623C353.079 216.561 353.033 216.507 352.978 216.466C352.719 216.333 351.024 215.344 350.976 215.313C350.717 215.172 350.302 215.486 350.137 216.027L348.889 220.114C348.821 220.36 348.678 220.579 348.481 220.741L345.656 222.883C345.208 223.228 345.036 224.051 345.357 224.287L347.374 225.746C347.446 225.814 347.498 225.9 347.525 225.995C347.553 226.09 347.555 226.191 347.531 226.287L347.068 230.24C347.068 230.531 347.115 230.727 347.249 230.805L349.25 231.966C349.407 232.052 349.642 231.966 349.854 231.707L352.35 228.522C352.402 228.435 352.475 228.363 352.563 228.312C352.651 228.261 352.751 228.234 352.852 228.232L355.348 228.538C355.74 228.585 356.203 227.871 356.132 227.33L355.654 223.902C355.631 223.649 355.686 223.395 355.811 223.173L357.828 219.408Z" fill="#FD836D"/>
<path opacity="0.15" d="M357.804 218.357C357.761 218.336 357.714 218.324 357.667 218.324C357.619 218.324 357.572 218.336 357.529 218.357L354.736 219.424C354.699 219.442 354.66 219.452 354.619 219.454C354.579 219.455 354.538 219.449 354.501 219.434C354.463 219.419 354.429 219.397 354.4 219.368C354.372 219.339 354.35 219.305 354.335 219.267L353.692 217.902L355.528 217.196C355.571 217.174 355.618 217.163 355.665 217.163C355.713 217.163 355.76 217.174 355.803 217.196L357.804 218.357Z" fill="white"/>
<path opacity="0.15" d="M350.874 221.259C350.801 221.507 350.656 221.728 350.458 221.894L347.673 224.044C347.547 224.146 347.445 224.274 347.374 224.42L345.373 223.259C345.445 223.114 345.547 222.986 345.671 222.883L348.457 220.733C348.655 220.571 348.797 220.352 348.865 220.106L350.874 221.259Z" fill="white"/>
<path opacity="0.1" d="M352.97 216.466C352.719 216.309 352.287 216.631 352.122 217.172L350.874 221.259L348.865 220.106L350.113 216.019C350.278 215.485 350.702 215.164 350.953 215.305C351.008 215.305 352.695 216.325 352.954 216.458L352.97 216.466Z" fill="black"/>
<path opacity="0.25" d="M349.391 226.899L347.406 225.761L345.389 224.302C345.153 224.129 345.185 223.659 345.389 223.274L347.39 224.435C347.186 224.812 347.154 225.291 347.39 225.455L349.391 226.899Z" fill="black"/>
<path opacity="0.15" d="M349.069 231.425C349.069 231.723 349.116 231.919 349.266 231.99L347.225 230.829C347.092 230.75 347.013 230.562 347.045 230.264L347.523 226.287C347.543 226.194 347.54 226.098 347.515 226.007C347.491 225.916 347.445 225.831 347.382 225.761L349.368 226.898C349.43 226.969 349.474 227.054 349.498 227.145C349.521 227.237 349.522 227.332 349.501 227.424L349.069 231.425Z" fill="black"/>
<path d="M353.087 216.616L354.335 219.267C354.351 219.305 354.373 219.339 354.403 219.368C354.432 219.397 354.467 219.42 354.505 219.434C354.543 219.449 354.584 219.456 354.625 219.454C354.666 219.452 354.706 219.442 354.743 219.424L357.529 218.357C357.969 218.184 358.149 218.812 357.828 219.408L355.811 223.181C355.686 223.403 355.631 223.657 355.654 223.91L356.132 227.338C356.203 227.879 355.74 228.593 355.348 228.546L352.852 228.24C352.751 228.242 352.651 228.269 352.563 228.32C352.475 228.371 352.402 228.443 352.35 228.531L349.854 231.715C349.462 232.225 348.999 232.037 349.069 231.409L349.548 227.432C349.571 227.335 349.568 227.234 349.541 227.138C349.513 227.041 349.462 226.954 349.391 226.883L347.374 225.424C347.053 225.197 347.233 224.365 347.673 224.028L350.466 221.879C350.656 221.711 350.794 221.494 350.867 221.251L352.114 217.157C352.318 216.529 352.891 216.192 353.087 216.616Z" fill="#FD836D"/>
<path opacity="0.5" d="M353.087 216.616L354.335 219.267C354.351 219.305 354.373 219.339 354.403 219.368C354.432 219.397 354.467 219.42 354.505 219.434C354.543 219.449 354.584 219.456 354.625 219.454C354.666 219.452 354.706 219.442 354.743 219.424L357.529 218.357C357.969 218.184 358.149 218.812 357.828 219.408L355.811 223.181C355.686 223.403 355.631 223.657 355.654 223.91L356.132 227.338C356.203 227.879 355.74 228.593 355.348 228.546L352.852 228.24C352.751 228.242 352.651 228.269 352.563 228.32C352.475 228.371 352.402 228.443 352.35 228.531L349.854 231.715C349.462 232.225 348.999 232.037 349.069 231.409L349.548 227.432C349.571 227.335 349.568 227.234 349.541 227.138C349.513 227.041 349.462 226.954 349.391 226.883L347.374 225.424C347.053 225.197 347.233 224.365 347.673 224.028L350.466 221.879C350.656 221.711 350.794 221.494 350.867 221.251L352.114 217.157C352.318 216.529 352.891 216.192 353.087 216.616Z" fill="white"/>
<path d="M363.172 25.5102L356.894 28.2007L355.552 34.8916C355.513 35.0755 355.425 35.245 355.295 35.3812C355.166 35.5175 355.001 35.6151 354.82 35.6631C354.638 35.7111 354.447 35.7077 354.267 35.6532C354.087 35.5987 353.926 35.4952 353.802 35.3544L349.305 30.2166L342.517 31.001C342.322 31.0304 342.123 31.0022 341.945 30.9198C341.766 30.8374 341.616 30.7044 341.512 30.5374C341.409 30.3703 341.356 30.1766 341.362 29.9801C341.367 29.7837 341.431 29.5932 341.543 29.4322L345.036 23.5727L342.195 17.3681C342.126 17.2015 342.103 17.0193 342.128 16.8408C342.154 16.6622 342.227 16.4939 342.34 16.3535C342.454 16.213 342.603 16.1056 342.772 16.0426C342.941 15.9796 343.124 15.9633 343.301 15.9954L349.956 17.5093L354.979 12.8891C355.117 12.7602 355.288 12.6728 355.473 12.6368C355.659 12.6008 355.851 12.6178 356.027 12.6858C356.203 12.7537 356.356 12.87 356.469 13.0211C356.582 13.1722 356.651 13.3521 356.666 13.5402L357.286 20.3331L363.235 23.6747C363.41 23.7594 363.557 23.8931 363.657 24.0597C363.758 24.2263 363.808 24.4184 363.801 24.6129C363.795 24.8073 363.732 24.9956 363.62 25.1549C363.508 25.3142 363.353 25.4376 363.172 25.5102Z" fill="#FFD663"/>
<path d="M328.571 13.8848C328.516 13.9571 328.449 14.0206 328.375 14.073C328.242 14.1688 328.084 14.2254 327.921 14.2365C327.757 14.2476 327.594 14.2127 327.449 14.1358L323.957 12.3003L320.456 14.1358C320.312 14.2127 320.148 14.2476 319.984 14.2365C319.821 14.2254 319.663 14.1688 319.53 14.073C319.396 13.9778 319.291 13.8457 319.23 13.6926C319.169 13.5395 319.153 13.372 319.185 13.2102L319.852 9.28827L317.019 6.53509C316.901 6.42077 316.818 6.2754 316.779 6.11578C316.74 5.95616 316.747 5.78881 316.799 5.63305C316.848 5.47698 316.941 5.33807 317.066 5.23252C317.191 5.12697 317.343 5.05913 317.506 5.03692L321.43 4.47216L323.18 0.926752C323.252 0.780331 323.363 0.657099 323.502 0.571113C323.641 0.485126 323.801 0.439847 323.964 0.440435C324.127 0.441643 324.287 0.487664 324.425 0.57345C324.563 0.659236 324.676 0.781473 324.749 0.926752L326.499 4.47216L330.423 5.03692C330.585 5.06062 330.738 5.12918 330.863 5.23486C330.988 5.34053 331.081 5.47911 331.132 5.63495C331.183 5.79078 331.189 5.95765 331.149 6.11672C331.11 6.27578 331.027 6.42069 330.91 6.53509L328.077 9.28827L328.752 13.2102C328.782 13.45 328.717 13.6921 328.571 13.8848ZM317.404 5.73502L317.357 5.83699C317.337 5.89556 317.335 5.95851 317.35 6.01831C317.365 6.07812 317.398 6.13226 317.443 6.17427L320.472 9.13139L319.758 13.3043C319.748 13.3657 319.756 13.4286 319.78 13.4861C319.803 13.5435 319.843 13.5932 319.893 13.6297C319.943 13.6663 320.003 13.6882 320.065 13.693C320.127 13.6979 320.189 13.6855 320.244 13.6573L323.996 11.6885L327.739 13.6573C327.793 13.6883 327.854 13.7046 327.916 13.7046C327.978 13.7046 328.039 13.6883 328.092 13.6573C328.144 13.6216 328.185 13.5712 328.209 13.5127C328.232 13.4541 328.238 13.3898 328.226 13.3278L327.512 9.15493L330.541 6.1978C330.585 6.15475 330.616 6.10059 330.631 6.04115C330.646 5.98172 330.645 5.91927 330.627 5.86052C330.609 5.80087 330.575 5.74763 330.527 5.70725C330.48 5.66688 330.422 5.6411 330.36 5.63305L326.162 5.02123L324.247 1.19344C324.221 1.13645 324.179 1.08828 324.126 1.05484C324.073 1.02139 324.011 1.00414 323.949 1.00519C323.892 1.01143 323.838 1.03198 323.791 1.0649C323.744 1.09783 323.707 1.14206 323.682 1.19344L321.814 4.98985L317.615 5.60167C317.531 5.61876 317.456 5.66619 317.404 5.73502Z" fill="#E0E0E0"/>
<path opacity="0.2" d="M274.508 146.818C284.145 139.759 292.456 128.565 297.541 116.548C287.904 123.616 279.593 134.801 274.508 146.818Z" fill="black"/>
<path d="M336.128 187.686C332.785 187.725 330.298 185.388 328.736 182.446C338.75 170.139 345.522 153.745 345.522 139.406C345.522 128.777 341.795 121.31 335.791 117.858L327.512 113.089C321.602 109.677 313.488 110.148 304.518 115.317C286.468 125.749 271.8 151.297 271.8 172.39C271.8 183.003 275.512 190.431 281.5 193.922C282.897 194.706 288.398 197.891 289.756 198.683C295.673 202.127 303.811 201.672 312.805 196.479C315.213 195.078 317.5 193.477 319.64 191.694C325.714 196.503 333.123 191.263 336.058 188.753C336.45 188.423 336.497 187.686 336.128 187.686Z" fill="#E0E0E0"/>
<path d="M298.326 200.432C287.386 200.432 280.598 191.529 280.598 177.206C280.598 156.31 295.163 130.926 313.056 120.58C318.063 117.693 322.85 116.227 327.284 116.227C338.216 116.227 345.012 125.122 345.012 139.453C345.012 153.156 338.624 169.527 328.343 182.164L328.132 182.43L328.288 182.728C330.133 186.203 332.809 188.149 335.838 188.219C335.817 188.285 335.779 188.344 335.728 188.392C333.641 190.18 329.497 193.169 325.204 193.169C323.293 193.177 321.437 192.523 319.954 191.318L319.632 191.067L319.311 191.325C317.19 193.079 314.927 194.653 312.546 196.032C307.547 198.926 302.76 200.432 298.326 200.432Z" fill="#FAFAFA"/>
<path d="M327.284 115.717V116.737C337.902 116.737 344.502 125.443 344.502 139.445C344.502 153.047 338.161 169.292 327.951 181.842L327.519 182.368L327.841 182.964C329.536 186.164 331.922 188.133 334.661 188.627C332.487 190.361 328.885 192.675 325.204 192.675C323.407 192.683 321.662 192.068 320.268 190.934L319.625 190.424L318.989 190.949C316.891 192.699 314.652 194.273 312.295 195.656C307.366 198.495 302.665 199.939 298.326 199.939C287.708 199.939 281.108 191.232 281.108 177.191C281.108 156.459 295.555 131.256 313.284 121.004C318.212 118.164 322.913 116.721 327.253 116.721V115.717H327.284ZM327.253 115.717C322.889 115.717 317.977 117.137 312.773 120.141C294.724 130.566 280.056 156.114 280.056 177.206C280.056 192.228 287.488 200.943 298.294 200.943C302.658 200.943 307.57 199.523 312.773 196.519C315.182 195.118 317.468 193.517 319.609 191.734C321.179 193.015 323.146 193.708 325.173 193.695C329.662 193.695 333.955 190.557 336.026 188.792C336.419 188.463 336.466 187.725 336.097 187.725H336.019C332.722 187.725 330.258 185.411 328.704 182.486C338.718 170.178 345.491 153.784 345.491 139.445C345.491 124.424 338.059 115.717 327.253 115.717Z" fill="#FD836D"/>
<path d="M311.125 161.879C312.077 159.596 313.17 157.375 314.398 155.227C315.244 153.754 316.014 152.238 316.705 150.686C317.181 149.621 317.435 148.471 317.451 147.305C317.451 145.736 316.98 144.771 316.038 144.395C315.096 144.018 313.856 144.293 312.295 145.179C310.751 146.085 309.399 147.284 308.316 148.709C307.106 150.287 306.119 152.024 305.381 153.87L299.613 152.686C300.903 149.279 302.731 146.101 305.028 143.273C307.275 140.497 310.015 138.16 313.111 136.378C316.773 134.286 319.706 133.633 321.908 134.417C324.111 135.201 325.215 137.445 325.22 141.147C325.23 142.819 325.014 144.484 324.576 146.097C324.189 147.558 323.664 148.979 323.007 150.34C322.387 151.611 321.579 153.125 320.598 154.882C319.647 156.504 318.787 158.177 318.024 159.895C317.497 161.135 317.23 162.469 317.239 163.817L310.042 167.974C310.013 165.892 310.381 163.824 311.125 161.879ZM310.341 182.062C309.469 181.442 309.03 180.328 309.03 178.712C309.049 177.037 309.492 175.394 310.317 173.935C311.066 172.48 312.204 171.261 313.605 170.413C314.947 169.629 316.038 169.551 316.901 170.139C317.765 170.727 318.188 171.825 318.188 173.433C318.162 175.136 317.711 176.804 316.878 178.289C316.146 179.764 315.011 181.001 313.605 181.858C312.342 182.611 311.259 182.674 310.38 182.062H310.341Z" fill="#2F235A"/>
<path d="M284.867 66.2991C278.957 62.879 270.835 63.3418 261.857 68.5189C243.807 78.9515 229.14 104.5 229.14 125.592C229.14 136.205 232.859 143.634 238.847 147.109C240.236 147.893 245.667 151.031 245.667 151.031C245.413 153.418 244.587 155.709 243.261 157.71C241.935 159.712 240.146 161.365 238.047 162.53C237.701 162.726 237.913 163.064 238.219 163.236L246.515 168.029C246.626 168.095 246.753 168.133 246.883 168.139C255.053 168.139 264.509 162.648 267.146 151.243C268.135 150.772 269.132 150.262 270.144 149.674C288.194 139.249 302.862 113.693 302.862 92.6081C302.862 81.9872 299.15 74.5667 293.162 71.0683L284.867 66.2991Z" fill="#1C966B"/>
<path d="M270.144 73.3041C252.094 83.7288 237.427 109.285 237.427 130.37C237.427 144.685 244.168 153.251 254.15 154.035C253.774 158.585 252.448 163.699 246.303 167.315C245.816 167.605 246.452 168.147 246.86 168.147C255.029 168.147 264.486 162.656 267.123 151.251C268.112 150.78 269.108 150.27 270.121 149.682C288.171 139.257 302.838 113.701 302.838 92.6162C302.838 71.5313 288.21 62.8793 270.144 73.3041Z" fill="#23BC86"/>
<path d="M246.326 167.315C246.028 167.503 246.161 167.778 246.413 167.966L238.219 163.26C237.913 163.071 237.702 162.75 238.047 162.546C240.151 161.378 241.942 159.72 243.269 157.713C244.595 155.705 245.418 153.408 245.667 151.015L246.569 151.549L247.401 152.035C249.48 153.177 251.784 153.852 254.15 154.012C253.782 158.585 252.447 163.699 246.326 167.315Z" fill="#1C966B"/>
<path d="M266.691 133.672C265.82 133.052 265.381 131.938 265.381 130.33C265.4 128.655 265.842 127.011 266.668 125.553C267.417 124.095 268.559 122.876 269.964 122.031C271.298 121.262 272.394 121.171 273.252 121.757C274.107 122.337 274.539 123.435 274.539 125.043C274.514 126.748 274.063 128.42 273.228 129.907C272.497 131.379 271.366 132.616 269.964 133.476C268.661 134.221 267.57 134.291 266.691 133.672ZM265.522 91.0314L274.398 85.9092L272.915 115.811L267.005 119.223L265.522 91.0314Z" fill="#FAFAFA"/>
<path d="M145.364 126.15L109.265 147.046L123.603 171.41C123.879 172.067 124.361 172.618 124.976 172.979C126.687 173.944 136.818 179.811 137.375 180.132C137.81 180.383 138.296 180.532 138.796 180.568C139.296 180.604 139.798 180.527 140.264 180.341C140.73 180.155 141.148 179.866 141.487 179.496C141.825 179.126 142.075 178.684 142.217 178.203L157.787 133.35L145.364 126.15Z" fill="#FA6B5C"/>
<path opacity="0.2" d="M145.364 126.15L109.265 147.046L123.603 171.41C123.879 172.067 124.361 172.618 124.976 172.979C126.687 173.944 136.818 179.811 137.375 180.132C137.81 180.383 138.296 180.532 138.796 180.568C139.296 180.604 139.798 180.527 140.264 180.341C140.73 180.155 141.148 179.866 141.487 179.496C141.825 179.126 142.075 178.684 142.217 178.203L157.787 133.35L145.364 126.15Z" fill="black"/>
<path d="M121.688 154.216L136.026 178.579C136.3 179.198 136.757 179.718 137.336 180.068C137.916 180.419 138.589 180.583 139.264 180.538C139.94 180.494 140.585 180.243 141.114 179.819C141.642 179.396 142.027 178.821 142.218 178.171L157.787 133.319L121.688 154.216Z" fill="#FA6B5C"/>
<path d="M185.639 1.19325L49.5038 79.736C48.5911 80.3273 47.8311 81.1258 47.2856 82.0663C46.7401 83.0069 46.4245 84.0629 46.3647 85.1484V179.583C46.4225 180.665 46.7374 181.717 47.2833 182.653C47.8293 183.589 48.5904 184.381 49.5038 184.964L60.7026 191.24C61.6765 191.729 62.7515 191.984 63.8417 191.984C64.9319 191.984 66.0069 191.729 66.9808 191.24L203.124 112.65C204.036 112.057 204.795 111.258 205.34 110.318C205.885 109.378 206.202 108.322 206.263 107.237V12.8025C206.205 11.7209 205.89 10.6688 205.344 9.7331C204.798 8.79741 204.037 8.00501 203.124 7.42145L191.933 1.14618C190.953 0.662371 189.874 0.414631 188.781 0.422803C187.688 0.430976 186.612 0.694834 185.639 1.19325Z" fill="#FA6B5C"/>
<path opacity="0.3" d="M206.208 12.2298C205.957 10.661 204.678 10.0962 203.116 10.9904L66.9886 89.5567C66.0611 90.1357 65.3009 90.9469 64.7834 91.9099L47.3535 81.9872C47.8766 81.0816 48.6152 80.3191 49.5038 79.7673L185.647 1.19319C186.621 0.70524 187.696 0.451172 188.786 0.451172C189.876 0.451172 190.951 0.70524 191.925 1.19319L203.116 7.46845C203.94 7.99727 204.642 8.69537 205.175 9.51632C205.708 10.3373 206.06 11.2623 206.208 12.2298Z" fill="white"/>
<path d="M63.8574 189.765V95.3225C63.9172 94.238 64.2328 93.1831 64.7784 92.2438C65.3239 91.3046 66.084 90.5076 66.9965 89.9179L203.124 11.391C204.843 10.3948 206.263 11.2027 206.263 13.1951V107.598C206.202 108.683 205.885 109.739 205.34 110.679C204.795 111.619 204.036 112.418 203.124 113.011L66.9808 191.569C65.2543 192.589 63.8574 191.757 63.8574 189.765Z" fill="#FA6B5C"/>
<path opacity="0.2" d="M66.9808 191.209C66.0033 191.686 64.9297 191.934 63.8417 191.934C62.7537 191.934 61.6801 191.686 60.7026 191.209L49.5117 184.933C48.5991 184.353 47.8381 183.564 47.2922 182.631C46.7462 181.697 46.4309 180.647 46.3726 179.568V85.1254C46.4283 84.0111 46.7716 82.9302 47.3692 81.9878L64.7835 91.8949C64.2094 92.8176 63.8899 93.8758 63.8574 94.9619V189.397C63.8574 191.224 65.1445 192.275 66.9808 191.209Z" fill="black"/>
<path d="M102.053 114.148L100.695 113.364C100.175 113.066 99.5868 112.91 98.988 112.91C98.3892 112.91 97.8009 113.066 97.2811 113.364L88.986 118.148V106.822L104.344 97.9657C105.063 97.5416 105.659 96.937 106.072 96.2119C106.485 95.4867 106.701 94.6663 106.698 93.8319V87.4782C106.701 86.6438 106.485 85.8233 106.072 85.0981C105.659 84.373 105.063 83.7684 104.344 83.3443C103.618 82.9243 102.794 82.7031 101.954 82.7031C101.115 82.7031 100.291 82.9243 99.5648 83.3443L78.2659 95.636C77.005 96.3627 75.9581 97.4088 75.2306 98.6689C74.5031 99.929 74.1208 101.358 74.1223 102.813V161.793C74.1187 162.629 74.3341 163.451 74.7472 164.177C75.1602 164.904 75.7565 165.51 76.4766 165.934C77.2034 166.353 78.0275 166.573 78.8663 166.573C79.7051 166.573 80.5291 166.353 81.2559 165.934L86.5689 162.875C87.289 162.451 87.8853 161.845 88.2983 161.118C88.7114 160.391 88.9268 159.569 88.9232 158.734V135.594L101.998 128.048C102.516 127.747 102.946 127.315 103.244 126.796C103.543 126.278 103.701 125.689 103.701 125.09V117.121C103.711 116.524 103.565 115.935 103.275 115.414C102.986 114.892 102.564 114.455 102.053 114.148Z" fill="#E0E0E0"/>
<path opacity="0.1" d="M81.7425 165.652L81.2873 165.919C80.5605 166.336 79.7368 166.556 78.8984 166.555C78.0601 166.555 77.2366 166.334 76.5104 165.916C75.7841 165.497 75.1806 164.895 74.7601 164.17C74.3396 163.446 74.117 162.623 74.1144 161.785V102.805C74.1165 101.436 74.459 100.088 75.1111 98.8833L79.8904 101.637C79.2355 102.84 78.8928 104.189 78.8937 105.559V163.989C78.8951 164.322 78.9834 164.649 79.1499 164.938C79.3163 165.226 79.5552 165.466 79.8429 165.634C80.1306 165.802 80.4571 165.892 80.7903 165.895C81.1234 165.898 81.4516 165.815 81.7425 165.652Z" fill="black"/>
<path d="M88.986 106.822V123.671L102.037 116.148C102.212 116.046 102.41 115.991 102.613 115.99C102.816 115.989 103.015 116.042 103.19 116.144C103.366 116.245 103.511 116.391 103.612 116.567C103.713 116.743 103.765 116.942 103.763 117.145V125.13C103.763 125.725 103.606 126.311 103.309 126.827C103.011 127.343 102.584 127.772 102.068 128.071L88.986 135.617V158.749C88.9892 159.583 88.7735 160.403 88.3603 161.127C87.9472 161.851 87.3511 162.454 86.6317 162.875L81.7974 165.668C81.5071 165.836 81.1774 165.925 80.8417 165.926C80.506 165.926 80.1762 165.838 79.8856 165.67C79.595 165.502 79.3538 165.26 79.1866 164.969C79.0193 164.678 78.9318 164.348 78.933 164.013V105.559C78.9331 104.104 79.3161 102.675 80.0434 101.416C80.7707 100.156 81.8168 99.1094 83.0766 98.3815L104.171 86.2075C104.434 86.0559 104.732 85.9762 105.036 85.9763C105.339 85.9765 105.637 86.0565 105.9 86.2084C106.162 86.3603 106.38 86.5787 106.531 86.8416C106.683 87.1044 106.762 87.4025 106.761 87.7057V93.8476C106.763 94.6788 106.547 95.496 106.134 96.2173C105.721 96.9387 105.125 97.5389 104.407 97.9579L88.986 106.822Z" fill="#FAFAFA"/>
<path d="M134.55 71.194C134.308 70.3751 133.884 69.6216 133.309 68.9903C132.734 68.359 132.023 67.8663 131.23 67.5492C130.436 67.2321 129.582 67.0989 128.73 67.1595C127.877 67.2202 127.05 67.4732 126.31 67.8995L121.029 70.9508C120.348 71.3427 119.757 71.8724 119.294 72.5059C118.83 73.1395 118.504 73.8628 118.337 74.6297L102.586 146.309C102.463 146.913 102.532 147.54 102.784 148.103C103.036 148.666 103.458 149.136 103.991 149.446L105.435 150.278C105.882 150.536 106.39 150.672 106.906 150.672C107.423 150.672 107.93 150.536 108.378 150.278L114.742 146.607C115.628 146.065 116.35 145.292 116.83 144.371C117.367 143.442 117.761 142.437 117.999 141.39L120.558 128.322L133.428 120.894L134.762 126.204C134.951 126.897 135.383 127.498 135.979 127.899C136.512 128.212 140.224 130.338 140.758 130.66C141.102 130.807 141.481 130.859 141.852 130.809C142.224 130.76 142.575 130.61 142.869 130.377L150.638 125.891L134.55 71.194ZM124.089 110.281L126.844 96.1067L127.009 95.3223L129.928 106.908L124.089 110.281Z" fill="#E0E0E0"/>
<path opacity="0.1" d="M140.695 130.621C139.997 130.205 136.496 128.205 135.986 127.899C135.391 127.498 134.959 126.897 134.77 126.204L133.436 120.894L136.999 118.839L139.549 128.958C139.737 129.623 140.14 130.208 140.695 130.621Z" fill="black"/>
<path opacity="0.1" d="M134.707 109.662L129.928 106.9L127.008 95.3226C127.008 95.3226 127.008 95.3226 127.008 95.2756C127.26 94.146 127.511 92.8596 127.793 91.4319C128.131 89.6513 128.445 87.7531 128.743 85.7214C129.083 87.353 129.42 88.8565 129.755 90.2318C130.093 91.6045 130.407 92.7811 130.705 93.7695L134.707 109.662Z" fill="black"/>
<path opacity="0.1" d="M107.452 148.662C107.409 148.85 107.416 149.046 107.472 149.231C107.528 149.416 107.632 149.583 107.772 149.716C107.912 149.849 108.084 149.943 108.271 149.989C108.459 150.035 108.655 150.032 108.841 149.98V150.043L108.394 150.294C107.946 150.552 107.439 150.688 106.922 150.688C106.406 150.688 105.898 150.552 105.451 150.294L103.991 149.446C103.458 149.136 103.036 148.666 102.784 148.103C102.532 147.541 102.463 146.913 102.586 146.309L118.329 74.6611C118.473 73.9982 118.739 73.3679 119.114 72.802L123.893 75.5631C123.514 76.1238 123.248 76.7524 123.108 77.4143L107.452 148.662Z" fill="black"/>
<path d="M150.646 125.914L142.869 130.401C141.998 130.903 141.299 130.997 140.766 130.683C140.171 130.282 139.739 129.681 139.549 128.989L136.999 118.854L120.518 128.338L117.968 141.406C117.722 142.454 117.325 143.46 116.791 144.395C116.313 145.315 115.591 146.086 114.703 146.622L109.076 149.878C108.887 149.985 108.671 150.036 108.453 150.023C108.236 150.011 108.027 149.936 107.851 149.807C107.676 149.679 107.541 149.502 107.463 149.299C107.385 149.096 107.368 148.875 107.413 148.662L123.069 77.3905C123.237 76.6251 123.564 75.9033 124.027 75.2711C124.491 74.639 125.081 74.1105 125.761 73.7195L130.838 70.7858C131.199 70.5779 131.603 70.4545 132.018 70.4249C132.434 70.3954 132.851 70.4604 133.238 70.6152C133.624 70.77 133.971 71.0105 134.251 71.3186C134.532 71.6267 134.739 71.9943 134.856 72.3939L150.646 125.914ZM134.707 109.677L130.705 93.7533C130.407 92.7728 130.093 91.5883 129.755 90.2156C129.418 88.8429 129.08 87.3368 128.743 85.7053C128.453 87.7369 128.131 89.6273 127.801 91.4157C127.472 93.2042 127.142 94.7416 126.844 96.0751L122.873 116.47L134.707 109.677Z" fill="#FAFAFA"/>
<path d="M187.844 98.4598C189.215 96.1048 190.419 93.6567 191.447 91.1334C192.508 88.5323 193.399 85.8649 194.115 83.1482C194.837 80.403 195.387 77.6156 195.763 74.8021C196.148 71.9604 196.342 69.0962 196.344 66.2286C196.427 62.0125 195.888 57.8072 194.743 53.7487C193.926 50.6988 192.361 47.9004 190.191 45.6065C189.507 44.952 188.742 44.3879 187.915 43.9279L183.206 41.1982C181.716 40.3344 180.039 39.8421 178.317 39.7627C175.555 39.6058 172.494 40.4975 169.135 42.4375C165.62 44.5008 162.505 47.179 159.938 50.3444C157.107 53.779 154.723 57.5586 152.843 61.5927C148.799 70.2932 146.689 79.7668 146.659 89.3607C146.578 93.5828 147.123 97.7937 148.276 101.856C149.09 104.915 150.661 107.72 152.843 110.014C153.524 110.689 154.292 111.269 155.127 111.74C155.912 112.179 159.012 113.983 159.781 114.43C161.29 115.303 162.99 115.796 164.733 115.866C167.495 116.002 170.561 115.1 173.93 113.16C175.364 112.332 176.726 111.388 178.003 110.336L179.95 112.571C180.215 112.843 180.516 113.078 180.844 113.269C181.394 113.591 185.302 115.834 185.6 116.015C186.124 116.337 186.737 116.485 187.35 116.438C188.486 116.303 189.578 115.914 190.544 115.301L198.792 110.547L187.844 98.4598ZM180.483 78.7712C179.983 81.5387 179.181 84.2428 178.09 86.8349C177.133 89.1319 175.851 91.2796 174.283 93.2121C172.852 94.9757 171.113 96.4664 169.151 97.6126C167.714 98.5435 166.058 99.0841 164.348 99.1814C163.488 97.7882 162.875 96.2571 162.535 94.6554C161.932 91.8837 161.653 89.0513 161.704 86.2152C161.689 83.0742 161.967 79.9387 162.535 76.8494C163.023 74.0835 163.812 71.3794 164.89 68.7857C165.855 66.4786 167.145 64.3207 168.719 62.3771C170.161 60.59 171.916 59.0802 173.899 57.9217C175.311 57.0193 176.934 56.5002 178.608 56.4157C179.477 57.8209 180.098 59.3652 180.444 60.9809C181.06 63.7565 181.352 66.594 181.315 69.4368C181.325 72.5776 181.046 75.7126 180.483 78.8026V78.7712Z" fill="#E0E0E0"/>
<path opacity="0.1" d="M159.585 114.344C158.588 113.771 155.849 112.179 155.127 111.771C154.292 111.3 153.524 110.72 152.843 110.045C150.661 107.752 149.09 104.946 148.276 101.887C147.123 97.8248 146.578 93.614 146.659 89.3918C146.659 84.5616 147.202 79.7466 148.276 75.0372C149.233 70.7485 150.622 66.5673 152.42 62.5574L157.199 65.3185C153.424 73.7739 151.462 82.9254 151.439 92.1843C151.357 96.4039 151.902 100.612 153.055 104.672C153.868 107.734 155.439 110.542 157.623 112.838C158.22 113.41 158.877 113.915 159.585 114.344Z" fill="black"/>
<path opacity="0.1" d="M182.869 58.4551C182.407 57.8767 181.831 57.4004 181.176 57.0561C180.521 56.7118 179.801 56.5071 179.063 56.4548C178.929 56.4548 178.788 56.4548 178.655 56.4548C179.52 57.8584 180.139 59.3999 180.483 61.0123C181.083 63.7792 181.362 66.606 181.315 69.4368C181.327 72.5934 181.049 75.7443 180.483 78.8498C179.983 81.6172 179.181 84.3214 178.09 86.9135C177.133 89.2106 175.851 91.3583 174.284 93.2908C172.852 95.0544 171.113 96.5451 169.151 97.6913C167.714 98.6222 166.058 99.1628 164.348 99.2601C164.519 99.5355 164.711 99.7977 164.921 100.045C165.382 100.627 165.962 101.105 166.622 101.444C167.283 101.784 168.009 101.978 168.751 102.013C170.593 102.004 172.393 101.459 173.93 100.445C175.892 99.2984 177.631 97.8077 179.063 96.0441C180.627 94.1092 181.909 91.962 182.869 89.6668C183.961 87.0723 184.764 84.3655 185.263 81.5952C185.829 78.4898 186.107 75.3388 186.094 72.1823C186.14 69.3593 185.861 66.5405 185.263 63.7812C184.889 61.8444 184.069 60.021 182.869 58.4551Z" fill="black"/>
<path opacity="0.1" d="M179.361 109.191C178.914 109.599 178.466 109.975 178.003 110.367L179.95 112.603C180.215 112.875 180.516 113.11 180.844 113.301C181.378 113.615 185.059 115.725 185.553 116.023C185.249 115.836 184.969 115.612 184.721 115.356L179.361 109.191Z" fill="black"/>
<path d="M198.792 110.579L190.544 115.341C189.578 115.947 188.49 116.333 187.358 116.47C186.864 116.495 186.371 116.407 185.916 116.214C185.461 116.021 185.055 115.728 184.729 115.356L179.361 109.191C177.702 110.718 175.881 112.059 173.93 113.191C170.561 115.131 167.495 116.033 164.733 115.898C162.058 115.799 159.519 114.695 157.623 112.807C155.441 110.509 153.871 107.702 153.055 104.641C151.908 100.591 151.364 96.3938 151.439 92.1849C151.468 82.591 153.578 73.1175 157.623 64.4169C159.505 60.3738 161.895 56.5861 164.733 53.145C167.302 49.9815 170.417 47.3035 173.93 45.2382C177.289 43.2929 180.35 42.4013 183.112 42.5634C185.776 42.6905 188.296 43.8099 190.175 45.701C192.35 47.9947 193.915 50.7968 194.727 53.851C195.879 57.8951 196.424 62.0877 196.344 66.2917C196.345 69.1591 196.153 72.0234 195.771 74.8652C195.387 77.6915 194.832 80.4918 194.107 83.2505C193.389 85.9648 192.495 88.6296 191.431 91.2279C190.406 93.7526 189.202 96.2009 187.829 98.5543L198.792 110.579ZM161.704 86.2626C161.653 89.1014 161.932 91.9364 162.535 94.7107C162.905 96.637 163.71 98.4534 164.89 100.021C165.353 100.601 165.934 101.075 166.594 101.415C167.254 101.754 167.978 101.95 168.719 101.99C170.562 101.98 172.361 101.435 173.899 100.421C175.861 99.275 177.599 97.7842 179.031 96.0207C180.598 94.0861 181.883 91.9389 182.845 89.6434C183.924 87.0474 184.714 84.3406 185.2 81.5719C185.77 78.4671 186.049 75.3157 186.032 72.159C186.081 69.3359 185.802 66.5167 185.2 63.758C184.832 61.8311 184.026 60.0143 182.845 58.4476C182.382 57.869 181.804 57.3926 181.148 57.0484C180.492 56.7041 179.771 56.4995 179.031 56.4474C177.209 56.4324 175.424 56.9564 173.899 57.9534C171.915 59.1065 170.159 60.6141 168.719 62.401C167.148 64.3465 165.858 66.504 164.89 68.8096C163.816 71.4045 163.026 74.1082 162.535 76.8733C161.968 79.9601 161.69 83.0929 161.704 86.2313V86.2626Z" fill="#FAFAFA"/>
</svg>
