<svg width="34" height="34" viewBox="0 0 34 34" fill="none" xmlns="http://www.w3.org/2000/svg">
<path d="M22.2492 17.1047C22.2492 18.4971 21.6961 19.8324 20.7115 20.817C19.727 21.8016 18.3916 22.3547 16.9992 22.3547C15.6068 22.3547 14.2715 21.8016 13.2869 20.817C12.3023 19.8324 11.7492 18.4971 11.7492 17.1047C11.7492 16.8054 11.7807 16.5132 11.835 16.2297H9.99922V23.2244C9.99922 23.7109 10.393 24.1047 10.8795 24.1047H23.1207C23.3539 24.1042 23.5773 24.0113 23.742 23.8463C23.9067 23.6812 23.9992 23.4576 23.9992 23.2244V16.2297H22.1635C22.2177 16.5132 22.2492 16.8054 22.2492 17.1047ZM16.9992 20.6047C17.459 20.6046 17.9142 20.5139 18.3389 20.3379C18.7636 20.1618 19.1495 19.9039 19.4745 19.5787C19.7995 19.2535 20.0572 18.8675 20.2331 18.4427C20.4089 18.0179 20.4993 17.5627 20.4992 17.1029C20.4991 16.6432 20.4084 16.188 20.2324 15.7633C20.0564 15.3386 19.7984 14.9527 19.4732 14.6277C19.1481 14.3027 18.7621 14.0449 18.3373 13.8691C17.9125 13.6933 17.4572 13.6028 16.9975 13.6029C16.069 13.6032 15.1786 13.9722 14.5222 14.6289C13.8659 15.2856 13.4972 16.1762 13.4975 17.1047C13.4977 18.0332 13.8668 18.9235 14.5235 19.5799C15.1802 20.2363 16.0707 20.6049 16.9992 20.6047ZM21.1992 13.4297H23.2975C23.4369 13.4297 23.5706 13.3744 23.6693 13.276C23.7681 13.1776 23.8238 13.0441 23.8242 12.9047V10.8064C23.8242 10.6667 23.7687 10.5328 23.6699 10.434C23.5712 10.3352 23.4372 10.2797 23.2975 10.2797H21.1992C21.0595 10.2797 20.9255 10.3352 20.8268 10.434C20.728 10.5328 20.6725 10.6667 20.6725 10.8064V12.9047C20.6742 13.1934 20.9105 13.4297 21.1992 13.4297ZM16.9992 0.304688C12.5436 0.304688 8.27044 2.07468 5.11983 5.22529C1.96921 8.37591 0.199219 12.6491 0.199219 17.1047C0.199219 21.5603 1.96921 25.8335 5.11983 28.9841C8.27044 32.1347 12.5436 33.9047 16.9992 33.9047C19.2054 33.9047 21.39 33.4701 23.4283 32.6259C25.4666 31.7816 27.3186 30.5441 28.8786 28.9841C30.4386 27.4241 31.6761 25.572 32.5204 23.5338C33.3647 21.4955 33.7992 19.3109 33.7992 17.1047C33.7992 14.8985 33.3647 12.7139 32.5204 10.6756C31.6761 8.63734 30.4386 6.78532 28.8786 5.22529C27.3186 3.66527 25.4666 2.42779 23.4283 1.58351C21.39 0.739232 19.2054 0.304688 16.9992 0.304688ZM25.7492 23.9104C25.7492 24.9797 24.8742 25.8547 23.805 25.8547H10.1935C9.12422 25.8547 8.24922 24.9797 8.24922 23.9104V10.2989C8.24922 9.22969 9.12422 8.35469 10.1935 8.35469H23.805C24.8742 8.35469 25.7492 9.22969 25.7492 10.2989V23.9104Z" fill="white"/>
</svg>
