<svg xmlns="http://www.w3.org/2000/svg" xml:space="preserve" width="17px" height="17px" version="1.1" style="shape-rendering:geometricPrecision; text-rendering:geometricPrecision; image-rendering:optimizeQuality; fill-rule:evenodd; clip-rule:evenodd"
viewBox="0 0 0.82 0.82"
 xmlns:xlink="http://www.w3.org/1999/xlink"
 xmlns:xodm="http://www.corel.com/coreldraw/odm/2003">
 <defs>
  <style type="text/css">
   <![CDATA[
    .fil0 {fill:#F17777;fill-rule:nonzero}
   ]]>
  </style>
 </defs>
 <g id="Слой_x0020_1">
  <metadata id="CorelCorpID_0Corel-Layer"/>
  <path class="fil0" d="M0.82 0.72c0,0.05 -0.05,0.1 -0.1,0.1l-0.63 0c-0.05,0 -0.09,-0.05 -0.09,-0.1l0 -0.63c0,-0.05 0.04,-0.09 0.09,-0.09l0.63 0c0.05,0 0.1,0.04 0.1,0.09l0 0.63zm-0.17 -0.31c0,0.06 -0.02,0.12 -0.07,0.17 -0.05,0.05 -0.11,0.07 -0.17,0.07 -0.07,0 -0.13,-0.02 -0.18,-0.07 -0.04,-0.05 -0.07,-0.11 -0.07,-0.17 0,-0.02 0,-0.03 0.01,-0.04l-0.09 0 0 0.32c0,0.03 0.02,0.04 0.04,0.04l0.57 0c0.01,0 0.02,0 0.03,-0.01 0.01,-0.01 0.01,-0.02 0.01,-0.03l0 -0.32 -0.08 0c0,0.01 0,0.02 0,0.04zm-0.24 0.16c0.02,0 0.04,0 0.06,-0.01 0.02,-0.01 0.04,-0.02 0.05,-0.04 0.02,-0.01 0.03,-0.03 0.04,-0.05 0.01,-0.02 0.01,-0.04 0.01,-0.06 0,-0.02 0,-0.04 -0.01,-0.06 -0.01,-0.02 -0.02,-0.04 -0.04,-0.06 -0.01,-0.01 -0.03,-0.02 -0.05,-0.03 -0.02,-0.01 -0.04,-0.02 -0.06,-0.02 -0.05,0 -0.09,0.02 -0.12,0.05 -0.03,0.03 -0.05,0.07 -0.05,0.12 0,0.04 0.02,0.08 0.05,0.11 0.03,0.03 0.07,0.05 0.12,0.05zm0.19 -0.33l0.1 0c0.01,0 0.01,-0.01 0.02,-0.01 0,-0.01 0.01,-0.01 0.01,-0.02l0 -0.1c0,0 -0.01,-0.01 -0.01,-0.01 -0.01,-0.01 -0.01,-0.01 -0.02,-0.01l-0.1 0c0,0 -0.01,0 -0.01,0.01 -0.01,0 -0.01,0.01 -0.01,0.01l0 0.1c0,0.02 0.01,0.03 0.02,0.03z"/>
 </g>
</svg>
