<svg width="25" height="25" viewBox="0 0 25 25" fill="none" xmlns="http://www.w3.org/2000/svg">
<path d="M12.1211 2.54883C6.60709 2.54883 2.12109 7.03483 2.12109 12.5488C2.12109 18.0628 6.60709 22.5488 12.1211 22.5488C17.6351 22.5488 22.1211 18.0628 22.1211 12.5488C22.1211 7.03483 17.6351 2.54883 12.1211 2.54883ZM10.1221 16.9618L7.11655 13.9628C6.72579 13.5728 6.725 12.94 7.11478 12.5491C7.50481 12.158 8.13811 12.1573 8.52902 12.5475L10.1201 14.1358L14.7071 9.54883C15.0976 9.15836 15.7306 9.15836 16.1211 9.54883C16.5116 9.93929 16.5116 10.5724 16.1211 10.9628L10.1221 16.9618Z" fill="#2FAB73"/>
</svg>
