<svg width="35" height="34" viewBox="0 0 35 34" fill="none" xmlns="http://www.w3.org/2000/svg">
<path d="M17.3996 0.304688C8.12111 0.304688 0.599609 7.82619 0.599609 17.1047C0.599609 26.3832 8.12111 33.9047 17.3996 33.9047C26.6781 33.9047 34.1996 26.3832 34.1996 17.1047C34.1996 7.82619 26.6781 0.304688 17.3996 0.304688ZM24.2334 14.0667C24.2404 14.2102 24.2421 14.3537 24.2421 14.4937C24.2421 18.8687 20.9154 23.9104 14.8289 23.9104C13.0304 23.9134 11.2693 23.3969 9.75736 22.4229C10.0146 22.4544 10.2789 22.4667 10.5466 22.4667C12.0971 22.4667 13.5234 21.9399 14.6556 21.0509C13.9656 21.0374 13.297 20.8089 12.7431 20.3973C12.1891 19.9858 11.7773 19.4116 11.5651 18.7549C12.0606 18.8492 12.5711 18.8294 13.0579 18.6972C12.3089 18.5457 11.6355 18.1399 11.1516 17.5486C10.6677 16.9573 10.4033 16.2168 10.4031 15.4527V15.4124C10.8494 15.6592 11.3604 15.8097 11.9029 15.8272C11.2008 15.3598 10.7037 14.6419 10.5134 13.8202C10.3231 12.9985 10.454 12.1351 10.8791 11.4067C11.7103 12.4287 12.7468 13.2647 13.9216 13.8607C15.0964 14.4567 16.3833 14.7993 17.6989 14.8664C17.5316 14.1565 17.6036 13.4111 17.9036 12.7463C18.2037 12.0815 18.7149 11.5344 19.358 11.1902C20.001 10.8459 20.7398 10.7237 21.4594 10.8426C22.1791 10.9615 22.8393 11.3149 23.3374 11.8477C24.0779 11.7012 24.7881 11.4295 25.4374 11.0444C25.1905 11.8112 24.6738 12.4622 23.9831 12.8767C24.6391 12.7977 25.2796 12.6213 25.8836 12.3534C25.44 13.0183 24.8811 13.5985 24.2334 14.0667Z" fill="white"/>
</svg>
